# Blender 4.4.1
# www.blender.org
mtllib Block.mtl
o Cube.001
v 0.500000 0.500000 -0.500000
v 0.500000 -0.500000 -0.500000
v 0.500000 0.500000 0.500000
v 0.500000 -0.500000 0.500000
v -0.500000 0.500000 -0.500000
v -0.500000 -0.500000 -0.500000
v -0.500000 0.500000 0.500000
v -0.500000 -0.500000 0.500000
vn -0.0000 1.0000 -0.0000
vn -0.0000 -0.0000 1.0000
vn -1.0000 -0.0000 -0.0000
vn -0.0000 -1.0000 -0.0000
vn 1.0000 -0.0000 -0.0000
vn -0.0000 -0.0000 -1.0000
vt 0.000100 0.999900
vt 0.999900 0.000100
vt 0.999900 0.999900
vt 0.000100 0.000100
s 1
usemtl Material.001
f 5/1/1 3/2/1 1/3/1
f 3/2/2 8/1/2 4/4/2
f 7/1/3 6/2/3 8/3/3
f 2/3/4 8/4/4 6/2/4
f 1/2/5 4/1/5 2/4/5
f 5/1/6 2/2/6 6/3/6
f 5/1/1 7/4/1 3/2/1
f 3/2/2 7/3/2 8/1/2
f 7/1/3 5/4/3 6/2/3
f 2/3/4 4/1/4 8/4/4
f 1/2/5 3/3/5 4/1/5
f 5/1/6 1/4/6 2/2/6
