mtllib coin.mtl
o Coin
v 0.000000 0.000000 -0.120000
v 0.000000 0.000000 0.120000
v 0.500000 0.000000 -0.120000
v 0.353553 0.353553 -0.120000
v 0.000000 0.500000 -0.120000
v -0.353553 0.353553 -0.120000
v -0.500000 0.000000 -0.120000
v -0.353553 -0.353553 -0.120000
v 0.000000 -0.500000 -0.120000
v 0.353553 -0.353553 -0.120000
v 0.500000 0.000000 0.120000
v 0.353553 0.353553 0.120000
v 0.000000 0.500000 0.120000
v -0.353553 0.353553 0.120000
v -0.500000 0.000000 0.120000
v -0.353553 -0.353553 0.120000
v 0.000000 -0.500000 0.120000
v 0.353553 -0.353553 0.120000
vn 0.000000 0.000000 -1.000000
vn 0.000000 0.000000 1.000000
vn 0.923880 0.382683 0.000000
vn 0.382683 0.923880 0.000000
vn -0.382683 0.923880 0.000000
vn -0.923880 0.382683 0.000000
vn -0.923880 -0.382683 0.000000
vn -0.382683 -0.923880 0.000000
vn 0.382683 -0.923880 0.000000
vn 0.923880 -0.382683 0.000000
usemtl CoinGold
f 1//1 4//1 3//1
f 1//1 5//1 4//1
f 1//1 6//1 5//1
f 1//1 7//1 6//1
f 1//1 8//1 7//1
f 1//1 9//1 8//1
f 1//1 10//1 9//1
f 1//1 3//1 10//1
f 2//2 11//2 12//2
f 2//2 12//2 13//2
f 2//2 13//2 14//2
f 2//2 14//2 15//2
f 2//2 15//2 16//2
f 2//2 16//2 17//2
f 2//2 17//2 18//2
f 2//2 18//2 11//2
f 3//3 4//3 12//3
f 3//3 12//3 11//3
f 4//4 5//4 13//4
f 4//4 13//4 12//4
f 5//5 6//5 14//5
f 5//5 14//5 13//5
f 6//6 7//6 15//6
f 6//6 15//6 14//6
f 7//7 8//7 16//7
f 7//7 16//7 15//7
f 8//8 9//8 17//8
f 8//8 17//8 16//8
f 9//9 10//9 18//9
f 9//9 18//9 17//9
f 10//10 3//10 11//10
f 10//10 11//10 18//10
