# Blender 4.4.1
# www.blender.org
mtllib flag.mtl
o 円柱.001
v -0.000001 7.045012 -0.065353
v -0.000000 4.288795 -0.065353
v -0.000000 7.045012 3.611247
v -0.000000 4.288795 3.611247
v -0.098009 7.045012 -0.065353
v -0.098008 4.288795 -0.065353
v -0.098008 7.045012 3.611247
v -0.098008 4.288795 3.611247
v 0.000000 0.030340 0.225113
v -0.000001 7.178408 0.225113
v -0.043917 0.030340 0.220788
v -0.043918 7.178408 0.220788
v -0.086147 0.030340 0.207978
v -0.086148 7.178408 0.207978
v -0.125066 0.030340 0.187175
v -0.125067 7.178408 0.187175
v -0.159179 0.030340 0.159179
v -0.159180 7.178408 0.159179
v -0.187175 0.030340 0.125066
v -0.187176 7.178408 0.125066
v -0.207978 0.030340 0.086147
v -0.207979 7.178408 0.086147
v -0.220788 0.030340 0.043917
v -0.220789 7.178408 0.043917
v -0.225113 0.030340 0.000000
v -0.225114 7.178408 0.000000
v -0.220788 0.030340 -0.043917
v -0.220789 7.178408 -0.043917
v -0.207978 0.030340 -0.086147
v -0.207979 7.178408 -0.086147
v -0.187175 0.030340 -0.125066
v -0.187176 7.178408 -0.125066
v -0.159179 0.030340 -0.159179
v -0.159180 7.178408 -0.159179
v -0.125066 0.030340 -0.187175
v -0.125067 7.178408 -0.187175
v -0.086147 0.030340 -0.207978
v -0.086148 7.178408 -0.207978
v -0.043917 0.030340 -0.220788
v -0.043918 7.178408 -0.220788
v -0.000000 0.030340 -0.225113
v -0.000001 7.178408 -0.225113
v 0.043917 0.030340 -0.220788
v 0.043916 7.178408 -0.220788
v 0.086147 0.030340 -0.207978
v 0.086146 7.178408 -0.207978
v 0.125066 0.030340 -0.187175
v 0.125065 7.178408 -0.187175
v 0.159179 0.030340 -0.159179
v 0.159178 7.178408 -0.159179
v 0.187175 0.030340 -0.125066
v 0.187174 7.178408 -0.125066
v 0.207978 0.030340 -0.086147
v 0.207977 7.178408 -0.086147
v 0.220788 0.030340 -0.043917
v 0.220787 7.178408 -0.043917
v 0.225113 0.030340 -0.000000
v 0.225112 7.178408 -0.000000
v 0.220788 0.030340 0.043917
v 0.220787 7.178408 0.043917
v 0.207978 0.030340 0.086147
v 0.207977 7.178408 0.086147
v 0.187175 0.030340 0.125066
v 0.187174 7.178408 0.125066
v 0.159179 0.030340 0.159179
v 0.159178 7.178408 0.159179
v 0.125066 0.030340 0.187175
v 0.125065 7.178408 0.187175
v 0.086147 0.030340 0.207978
v 0.086146 7.178408 0.207978
v 0.043917 0.030340 0.220788
v 0.043916 7.178408 0.220788
vn 0.5774 -0.5773 -0.5773
vn 0.5773 0.5774 -0.5773
vn 0.5774 0.5773 0.5773
vn 0.5773 -0.5774 0.5773
vn -0.5774 -0.5773 -0.5773
vn -0.5774 0.5773 0.5773
vn -0.5773 0.5773 -0.5774
vn -0.5773 -0.5773 0.5774
vn -0.0980 -0.0000 0.9952
vn -0.2903 -0.0000 0.9569
vn -0.4714 -0.0000 0.8819
vn -0.6344 -0.0000 0.7730
vn -0.7730 -0.0000 0.6344
vn -0.8819 -0.0000 0.4714
vn -0.9569 -0.0000 0.2903
vn -0.9952 -0.0000 0.0980
vn -0.9952 -0.0000 -0.0980
vn -0.9569 -0.0000 -0.2903
vn -0.8819 -0.0000 -0.4714
vn -0.7730 -0.0000 -0.6344
vn -0.6344 -0.0000 -0.7730
vn -0.4714 -0.0000 -0.8819
vn -0.2903 -0.0000 -0.9569
vn -0.0980 -0.0000 -0.9952
vn 0.0980 -0.0000 -0.9952
vn 0.2903 -0.0000 -0.9569
vn 0.4714 -0.0000 -0.8819
vn 0.6344 -0.0000 -0.7730
vn 0.7730 -0.0000 -0.6344
vn 0.8819 -0.0000 -0.4714
vn 0.9569 -0.0000 -0.2903
vn 0.9952 -0.0000 -0.0980
vn 0.9952 -0.0000 0.0980
vn 0.9569 -0.0000 0.2903
vn 0.8819 -0.0000 0.4714
vn 0.7730 -0.0000 0.6344
vn 0.6344 -0.0000 0.7730
vn 0.4714 -0.0000 0.8819
vn -0.0000 1.0000 -0.0000
vn 0.2903 -0.0000 0.9569
vn 0.0980 -0.0000 0.9952
vn -0.0000 -1.0000 -0.0000
vn -0.0002 1.0000 -0.0000
vn 0.0001 1.0000 -0.0000
vn -0.0001 1.0000 -0.0000
vn 0.0002 1.0000 -0.0000
vt 0.000068 0.999932
vt 0.047280 0.999932
vt 0.047280 0.000068
vt 0.000068 0.000068
vt 0.169856 0.000068
vt 0.047415 0.012069
vt 0.047415 0.000068
vt 0.169856 0.012069
vt 0.047415 0.024070
vt 0.169856 0.024070
vt 0.047415 0.036072
vt 0.169856 0.036072
vt 0.047415 0.048073
vt 0.169856 0.048073
vt 0.047415 0.060074
vt 0.169856 0.060074
vt 0.047415 0.072076
vt 0.169856 0.072076
vt 0.047415 0.084077
vt 0.169856 0.084077
vt 0.047415 0.096078
vt 0.169856 0.096078
vt 0.047415 0.108079
vt 0.169856 0.108079
vt 0.047415 0.120081
vt 0.169856 0.120081
vt 0.047415 0.132082
vt 0.169856 0.132082
vt 0.047415 0.144083
vt 0.169856 0.144083
vt 0.047415 0.156085
vt 0.169856 0.156085
vt 0.047415 0.168086
vt 0.169856 0.168086
vt 0.047415 0.180087
vt 0.169856 0.180087
vt 0.047415 0.192089
vt 0.169856 0.192089
vt 0.047415 0.204090
vt 0.169856 0.204090
vt 0.047415 0.216091
vt 0.169856 0.216091
vt 0.047415 0.228092
vt 0.169856 0.228092
vt 0.047415 0.240094
vt 0.169856 0.240094
vt 0.047415 0.252095
vt 0.169856 0.252095
vt 0.047415 0.264096
vt 0.169856 0.264096
vt 0.047415 0.276098
vt 0.169856 0.276098
vt 0.047415 0.288099
vt 0.169856 0.288099
vt 0.047415 0.300100
vt 0.169856 0.300100
vt 0.047415 0.312102
vt 0.169856 0.312102
vt 0.047415 0.324103
vt 0.169856 0.324103
vt 0.047415 0.336104
vt 0.169856 0.336104
vt 0.047415 0.348105
vt 0.169856 0.348105
vt 0.047415 0.360107
vt 0.155665 0.406333
vt 0.147179 0.492494
vt 0.061017 0.484008
vt 0.169856 0.360107
vt 0.047415 0.372108
vt 0.169856 0.372108
vt 0.047415 0.384109
vt 0.166925 0.584929
vt 0.090569 0.625741
vt 0.049757 0.549386
vt 0.054349 0.474030
vt 0.049757 0.462942
vt 0.047415 0.451171
vt 0.047415 0.439170
vt 0.049757 0.427399
vt 0.054349 0.416311
vt 0.061017 0.406333
vt 0.069503 0.397846
vt 0.079482 0.391179
vt 0.090569 0.386586
vt 0.102340 0.384245
vt 0.114341 0.384245
vt 0.126112 0.386586
vt 0.137200 0.391179
vt 0.147179 0.397846
vt 0.162332 0.416311
vt 0.169266 0.451171
vt 0.166925 0.427399
vt 0.169266 0.439170
vt 0.166925 0.462942
vt 0.162332 0.474030
vt 0.155665 0.484008
vt 0.137200 0.499162
vt 0.102340 0.506096
vt 0.126112 0.503755
vt 0.114341 0.506096
vt 0.090569 0.503755
vt 0.079482 0.499162
vt 0.069503 0.492494
vt 0.169856 0.384109
vt 0.054349 0.538298
vt 0.061017 0.528319
vt 0.069503 0.519833
vt 0.079482 0.513166
vt 0.090569 0.508573
vt 0.102340 0.506232
vt 0.114341 0.506232
vt 0.126112 0.508573
vt 0.137200 0.513166
vt 0.147179 0.519833
vt 0.155665 0.528319
vt 0.162332 0.538298
vt 0.166925 0.549386
vt 0.169266 0.561157
vt 0.169266 0.573158
vt 0.162332 0.596016
vt 0.155665 0.605995
vt 0.147179 0.614481
vt 0.137200 0.621149
vt 0.126112 0.625741
vt 0.114341 0.628083
vt 0.102340 0.628083
vt 0.079482 0.621149
vt 0.069503 0.614481
vt 0.061017 0.605995
vt 0.054349 0.596016
vt 0.049757 0.584929
vt 0.047415 0.573158
vt 0.047415 0.561157
s 1
usemtl マテリアル
f 2/1/1 1/2/2 3/3/3
f 2/1/1 3/3/3 4/4/4
f 6/1/5 7/3/6 5/2/7
f 6/1/5 8/4/8 7/3/6
f 4/4/4 6/1/5 2/1/1
f 2/1/1 5/2/7 1/2/2
f 3/3/3 8/4/8 4/4/4
f 1/2/2 7/3/6 3/3/3
f 10/5/9 11/6/9 9/7/9
f 12/8/10 13/9/10 11/6/10
f 14/10/11 15/11/11 13/9/11
f 16/12/12 17/13/12 15/11/12
f 18/14/13 19/15/13 17/13/13
f 20/16/14 21/17/14 19/15/14
f 22/18/15 23/19/15 21/17/15
f 24/20/16 25/21/16 23/19/16
f 26/22/17 27/23/17 25/21/17
f 28/24/18 29/25/18 27/23/18
f 30/26/19 31/27/19 29/25/19
f 32/28/20 33/29/20 31/27/20
f 34/30/21 35/31/21 33/29/21
f 36/32/22 37/33/22 35/31/22
f 38/34/23 39/35/23 37/33/23
f 40/36/24 41/37/24 39/35/24
f 42/38/25 43/39/25 41/37/25
f 44/40/26 45/41/26 43/39/26
f 46/42/27 47/43/27 45/41/27
f 48/44/28 49/45/28 47/43/28
f 50/46/29 51/47/29 49/45/29
f 52/48/30 53/49/30 51/47/30
f 54/50/31 55/51/31 53/49/31
f 56/52/32 57/53/32 55/51/32
f 58/54/33 59/55/33 57/53/33
f 60/56/34 61/57/34 59/55/34
f 62/58/35 63/59/35 61/57/35
f 64/60/36 65/61/36 63/59/36
f 66/62/37 67/63/37 65/61/37
f 68/64/38 69/65/38 67/63/38
f 46/66/39 30/67/39 14/68/39
f 70/69/40 71/70/40 69/65/40
f 72/71/41 9/72/41 71/70/41
f 39/73/42 55/74/42 71/75/42
f 10/5/9 12/8/9 11/6/9
f 12/8/10 14/10/10 13/9/10
f 14/10/11 16/12/11 15/11/11
f 16/12/12 18/14/12 17/13/12
f 18/14/13 20/16/13 19/15/13
f 20/16/14 22/18/14 21/17/14
f 22/18/15 24/20/15 23/19/15
f 24/20/16 26/22/16 25/21/16
f 26/22/17 28/24/17 27/23/17
f 28/24/18 30/26/18 29/25/18
f 30/26/19 32/28/19 31/27/19
f 32/28/20 34/30/20 33/29/20
f 34/30/21 36/32/21 35/31/21
f 36/32/22 38/34/22 37/33/22
f 38/34/23 40/36/23 39/35/23
f 40/36/24 42/38/24 41/37/24
f 42/38/25 44/40/25 43/39/25
f 44/40/26 46/42/26 45/41/26
f 46/42/27 48/44/27 47/43/27
f 48/44/28 50/46/28 49/45/28
f 50/46/29 52/48/29 51/47/29
f 52/48/30 54/50/30 53/49/30
f 54/50/31 56/52/31 55/51/31
f 56/52/32 58/54/32 57/53/32
f 58/54/33 60/56/33 59/55/33
f 60/56/34 62/58/34 61/57/34
f 62/58/35 64/60/35 63/59/35
f 64/60/36 66/62/36 65/61/36
f 66/62/37 68/64/37 67/63/37
f 68/64/38 70/69/38 69/65/38
f 14/68/39 12/76/39 10/77/39
f 10/77/39 72/78/39 14/68/39
f 72/78/39 70/79/39 14/68/39
f 70/79/39 68/80/39 66/81/39
f 66/81/39 64/82/39 62/83/39
f 62/83/39 60/84/43 58/85/44
f 58/85/44 56/86/39 62/83/39
f 56/86/39 54/87/39 62/83/39
f 54/87/39 52/88/39 50/89/39
f 50/89/39 48/90/39 46/66/39
f 46/66/39 44/91/39 38/92/39
f 44/91/39 42/93/39 38/92/39
f 42/93/39 40/94/39 38/92/39
f 38/92/39 36/95/39 34/96/39
f 34/96/39 32/97/39 30/67/39
f 30/67/39 28/98/39 22/99/39
f 28/98/39 26/100/45 22/99/39
f 26/100/45 24/101/46 22/99/39
f 22/99/39 20/102/39 18/103/39
f 18/103/39 16/104/39 14/68/39
f 70/79/39 66/81/39 14/68/39
f 66/81/39 62/83/39 14/68/39
f 54/87/39 50/89/39 62/83/39
f 50/89/39 46/66/39 62/83/39
f 38/92/39 34/96/39 46/66/39
f 34/96/39 30/67/39 46/66/39
f 22/99/39 18/103/39 30/67/39
f 18/103/39 14/68/39 30/67/39
f 14/68/39 62/83/39 46/66/39
f 70/69/40 72/71/40 71/70/40
f 72/71/41 10/105/41 9/72/41
f 71/75/42 9/106/42 11/107/42
f 11/107/42 13/108/42 15/109/42
f 15/109/42 17/110/42 19/111/42
f 19/111/42 21/112/42 23/113/42
f 23/113/42 25/114/42 27/115/42
f 27/115/42 29/116/42 31/117/42
f 31/117/42 33/118/42 35/119/42
f 35/119/42 37/120/42 39/73/42
f 39/73/42 41/121/42 43/122/42
f 43/122/42 45/123/42 47/124/42
f 47/124/42 49/125/42 51/126/42
f 51/126/42 53/127/42 55/74/42
f 55/74/42 57/128/42 59/129/42
f 59/129/42 61/130/42 63/131/42
f 63/131/42 65/132/42 67/133/42
f 67/133/42 69/134/42 71/75/42
f 71/75/42 11/107/42 23/113/42
f 11/107/42 15/109/42 23/113/42
f 15/109/42 19/111/42 23/113/42
f 23/113/42 27/115/42 39/73/42
f 27/115/42 31/117/42 39/73/42
f 31/117/42 35/119/42 39/73/42
f 39/73/42 43/122/42 55/74/42
f 43/122/42 47/124/42 55/74/42
f 47/124/42 51/126/42 55/74/42
f 55/74/42 59/129/42 71/75/42
f 59/129/42 63/131/42 71/75/42
f 63/131/42 67/133/42 71/75/42
f 71/75/42 23/113/42 39/73/42
f 4/4/4 8/4/8 6/1/5
f 2/1/1 6/1/5 5/2/7
f 3/3/3 7/3/6 8/4/8
f 1/2/2 5/2/7 7/3/6
