# Blender 4.4.1
# www.blender.org
mtllib player.mtl
o 立方体
v -0.250000 -0.328690 0.342199
v -0.250000 0.250000 0.250000
v -0.250000 -0.278159 -0.232812
v -0.250000 0.250000 -0.250000
v 0.250000 -0.328690 0.342199
v 0.250000 0.250000 0.250000
v 0.250000 -0.278159 -0.232812
v 0.250000 0.250000 -0.250000
v -0.370360 -0.364072 0.000000
v -0.304784 0.000000 0.304784
v -0.304784 0.304784 -0.000000
v -0.304784 -0.000000 -0.304784
v 0.000000 -0.391436 -0.304784
v 0.000000 0.304784 -0.304784
v 0.304784 -0.000000 -0.304784
v 0.370360 -0.364072 0.000000
v 0.304784 0.304784 -0.000000
v 0.304784 0.000000 0.304784
v 0.000000 -0.391436 0.355718
v 0.000000 0.304784 0.304784
v -0.419753 0.000000 0.000000
v 0.000000 -0.000000 -0.486973
v 0.419753 0.000000 0.000000
v 0.000000 0.000000 0.486973
v 0.000000 -0.419753 0.000000
v 0.000000 0.419753 -0.000000
v -0.277392 -0.164162 0.323492
v -0.277392 -0.164162 -0.323492
v 0.277392 -0.164162 -0.323492
v 0.277392 -0.164162 0.323492
v -0.439666 -0.182036 0.000000
v 0.000000 -0.195718 -0.395879
v 0.439666 -0.182036 0.000000
v 0.000000 -0.264739 0.475677
vn -0.9047 -0.0398 0.4241
vn -0.9226 0.0414 0.3836
vn -0.8875 -0.0967 0.4505
vn -0.9015 0.3061 0.3061
vn -0.9004 0.2717 0.3397
vn -0.9015 0.3061 -0.3061
vn -0.9004 0.2717 -0.3397
vn -0.9226 0.0414 -0.3836
vn -0.9047 -0.0398 -0.4241
vn -0.8875 -0.0967 -0.4505
vn -0.4456 -0.1292 -0.8859
vn -0.3642 -0.2718 -0.8908
vn -0.2737 -0.4059 -0.8720
vn -0.3937 0.3937 -0.8307
vn -0.4914 0.2878 -0.8220
vn 0.3937 0.3937 -0.8307
vn 0.4914 0.2878 -0.8220
vn 0.3642 -0.2718 -0.8908
vn 0.4456 -0.1292 -0.8859
vn 0.2737 -0.4059 -0.8720
vn 0.9047 -0.0398 -0.4241
vn 0.9226 0.0414 -0.3836
vn 0.8875 -0.0967 -0.4505
vn 0.9015 0.3061 -0.3061
vn 0.9004 0.2717 -0.3397
vn 0.9015 0.3061 0.3061
vn 0.9004 0.2717 0.3397
vn 0.9226 0.0414 0.3836
vn 0.9047 -0.0398 0.4241
vn 0.8875 -0.0967 0.4505
vn 0.5049 -0.0063 0.8631
vn 0.4979 -0.0221 0.8670
vn 0.4910 -0.0371 0.8704
vn 0.3937 0.3937 0.8307
vn 0.4914 0.2878 0.8220
vn -0.3937 0.3937 0.8307
vn -0.4914 0.2878 0.8220
vn -0.4979 -0.0221 0.8670
vn -0.5049 -0.0063 0.8631
vn -0.4910 -0.0371 0.8704
vn -0.2717 -0.9237 -0.2700
vn -0.2988 -0.9234 -0.2408
vn -0.1360 -0.9045 -0.4041
vn 0.2717 -0.9237 -0.2700
vn 0.2988 -0.9234 -0.2408
vn 0.4311 -0.8984 -0.0835
vn 0.1880 -0.9746 0.1220
vn 0.1973 -0.9736 0.1150
vn 0.2466 -0.9661 0.0769
vn -0.1880 -0.9746 0.1220
vn -0.1973 -0.9736 0.1150
vn -0.1469 -0.9773 0.1527
vn 0.3061 0.9015 -0.3061
vn 0.3397 0.9004 -0.2717
vn -0.3061 0.9015 -0.3061
vn -0.2717 0.9004 -0.3397
vn -0.3061 0.9015 0.3061
vn -0.2717 0.9004 0.3397
vn 0.3061 0.9015 0.3061
vn 0.3397 0.9004 0.2717
vn -0.3167 -0.4752 0.8209
vn -0.4232 -0.1933 0.8852
vn -0.2072 -0.6726 0.7104
vn 0.4232 -0.1933 0.8852
vn 0.3167 -0.4752 0.8209
vn 0.2072 -0.6726 0.7104
vn 0.8706 -0.2655 0.4143
vn 0.9106 -0.1792 0.3724
vn 0.9331 -0.1167 0.3402
vn 0.7737 -0.4524 -0.4436
vn 0.7901 -0.3635 -0.4936
vn 0.7963 -0.3032 -0.5235
vn 0.3688 -0.4690 -0.8025
vn 0.3232 -0.5472 -0.7721
vn 0.4120 -0.3845 -0.8261
vn -0.3232 -0.5472 -0.7721
vn -0.3688 -0.4690 -0.8025
vn -0.4120 -0.3845 -0.8261
vn -0.7901 -0.3635 -0.4936
vn -0.7737 -0.4524 -0.4436
vn -0.7963 -0.3032 -0.5235
vn -0.9106 -0.1792 0.3724
vn -0.8706 -0.2655 0.4143
vn -0.9331 -0.1167 0.3402
vn -0.9308 0.1018 0.3511
vn -0.9004 0.3397 0.2717
vn -0.9004 0.3397 -0.2717
vn -0.9308 0.1018 -0.3511
vn -0.5130 0.0122 -0.8583
vn -0.2878 0.4914 -0.8220
vn 0.2878 0.4914 -0.8220
vn 0.5130 0.0122 -0.8583
vn 0.9308 0.1018 -0.3511
vn 0.9004 0.3397 -0.2717
vn 0.9004 0.3397 0.2717
vn 0.9308 0.1018 0.3511
vn 0.5130 0.0122 0.8583
vn 0.2878 0.4914 0.8220
vn -0.2878 0.4914 0.8220
vn -0.5130 0.0122 0.8583
vn -0.4311 -0.8984 -0.0835
vn 0.1360 -0.9045 -0.4041
vn 0.1469 -0.9773 0.1527
vn -0.2466 -0.9661 0.0769
vn 0.2717 0.9004 -0.3397
vn -0.3397 0.9004 -0.2717
vn -0.3397 0.9004 0.2717
vn 0.2717 0.9004 0.3397
vn -0.4750 0.0209 0.8797
vn 0.4750 0.0209 0.8797
vn 0.8397 -0.3197 0.4389
vn 0.7587 -0.5073 -0.4086
vn 0.2615 -0.6386 -0.7238
vn -0.2615 -0.6386 -0.7238
vn -0.7587 -0.5073 -0.4086
vn -0.8397 -0.3197 0.4389
vt 0.653583 0.965462
vt 0.657781 0.802752
vt 0.728454 0.939879
vt 0.533007 0.999911
vt 0.592116 0.837050
vt 0.429497 0.774705
vt 0.533980 0.724129
vt 0.584248 0.683451
vt 0.482185 0.614129
vt 0.551991 0.581251
vt 0.324900 0.549332
vt 0.432824 0.505837
vt 0.494093 0.493185
vt 0.448806 0.375991
vt 0.390082 0.397697
vt 0.240447 0.329032
vt 0.350487 0.285018
vt 0.408972 0.251971
vt 0.305392 0.159664
vt 0.397378 0.122879
vt 0.133302 0.101785
vt 0.236116 0.027198
vt 0.314312 0.007484
vt 0.789445 0.392220
vt 0.639355 0.319019
vt 0.799122 0.264816
vt 0.540389 0.454824
vt 0.672762 0.453272
vt 0.474208 0.217112
vt 0.582342 0.169889
vt 0.694748 0.132205
vt 0.159970 0.486081
vt 0.280125 0.440023
vt 0.090882 0.648589
vt 0.216754 0.619906
vt 0.000089 0.411249
vt 0.112930 0.348630
vt 0.395147 0.000089
vt 0.465691 0.097858
vt 0.505016 0.352265
vt 0.631758 0.542899
vt 0.644243 0.669987
vt 0.730485 0.763287
vt 0.799122 0.912696
vt 0.461945 0.896513
vt 0.356194 0.672167
vt 0.170278 0.223295
vt 0.024244 0.538024
s 1
usemtl マテリアル
f 10/1/1 31/2/2 27/3/3
f 2/4/4 21/5/4 10/1/5
f 21/5/6 4/6/6 12/7/7
f 31/2/8 12/7/9 28/8/10
f 28/8/11 22/9/12 32/10/13
f 4/6/14 22/9/14 12/7/15
f 22/9/16 8/11/16 15/12/17
f 22/9/18 29/13/19 32/10/20
f 15/12/21 33/14/22 29/13/23
f 8/11/24 23/15/24 15/12/25
f 23/15/26 6/16/26 18/17/27
f 33/14/28 18/17/29 30/18/30
f 30/18/31 24/19/32 34/20/33
f 6/16/34 24/19/34 18/17/35
f 24/19/36 2/21/36 10/22/37
f 24/19/38 27/23/39 34/20/40
f 3/24/41 25/25/42 9/26/43
f 7/27/44 25/25/45 13/28/46
f 25/25/47 5/29/48 19/30/49
f 25/25/50 1/31/51 9/26/52
f 8/11/53 26/32/53 17/33/54
f 4/34/55 26/32/55 14/35/56
f 26/32/57 2/36/57 20/37/58
f 26/32/59 6/16/59 17/33/60
f 34/20/61 1/38/62 19/39/63
f 5/29/64 34/20/65 19/39/66
f 16/40/67 30/18/68 5/29/69
f 7/27/70 33/14/71 16/40/72
f 32/10/73 7/27/74 13/41/75
f 3/42/76 32/10/77 13/41/78
f 31/2/79 3/42/80 9/43/81
f 27/3/82 9/43/83 1/44/84
f 10/1/1 21/5/85 31/2/2
f 2/4/4 11/45/86 21/5/4
f 21/5/6 11/45/87 4/6/6
f 31/2/8 21/5/88 12/7/9
f 28/8/11 12/7/89 22/9/12
f 4/6/14 14/46/90 22/9/14
f 22/9/16 14/46/91 8/11/16
f 22/9/18 15/12/92 29/13/19
f 15/12/21 23/15/93 33/14/22
f 8/11/24 17/33/94 23/15/24
f 23/15/26 17/33/95 6/16/26
f 33/14/28 23/15/96 18/17/29
f 30/18/31 18/17/97 24/19/32
f 6/16/34 20/47/98 24/19/34
f 24/19/36 20/47/99 2/21/36
f 24/19/38 10/22/100 27/23/39
f 3/24/41 13/28/101 25/25/42
f 7/27/44 16/40/102 25/25/45
f 25/25/47 16/40/103 5/29/48
f 25/25/50 19/30/104 1/31/51
f 8/11/53 14/35/105 26/32/53
f 4/34/55 11/48/106 26/32/55
f 26/32/57 11/48/107 2/36/57
f 26/32/59 20/37/108 6/16/59
f 34/20/61 27/23/109 1/38/62
f 5/29/64 30/18/110 34/20/65
f 16/40/67 33/14/111 30/18/68
f 7/27/70 29/13/112 33/14/71
f 32/10/73 29/13/113 7/27/74
f 3/42/76 28/8/114 32/10/77
f 31/2/79 28/8/115 3/42/80
f 27/3/82 31/2/116 9/43/83
