# Blender 4.4.1
# www.blender.org
mtllib title.mtl
o テキスト
v 0.872586 0.100000 -0.035395
v 0.859268 0.100000 -0.027574
v 0.845937 0.100000 -0.020531
v 0.832482 0.100000 -0.014259
v 0.818789 0.100000 -0.008751
v 0.804750 0.100000 -0.004000
v 0.790252 0.100000 0.000001
v 0.775185 0.100000 0.003259
v 0.759438 0.100000 0.005781
v 0.742898 0.100000 0.007574
v 0.725456 0.100000 0.008645
v 0.707000 0.100000 0.009000
v 0.673301 0.100000 0.006665
v 0.642241 0.100000 -0.000093
v 0.613875 0.100000 -0.010906
v 0.588259 0.100000 -0.025407
v 0.565449 0.100000 -0.043228
v 0.545500 0.100000 -0.064000
v 0.528468 0.100000 -0.087355
v 0.514407 0.100000 -0.112926
v 0.503375 0.100000 -0.140344
v 0.495426 0.100000 -0.169241
v 0.490616 0.100000 -0.199249
v 0.489000 0.100000 -0.230000
v 0.490764 0.100000 -0.263056
v 0.495944 0.100000 -0.294111
v 0.504375 0.100000 -0.323000
v 0.515889 0.100000 -0.349556
v 0.530320 0.100000 -0.373611
v 0.547500 0.100000 -0.395000
v 0.567264 0.100000 -0.413556
v 0.589445 0.100000 -0.429111
v 0.613875 0.100000 -0.441500
v 0.640389 0.100000 -0.450556
v 0.668820 0.100000 -0.456111
v 0.699000 0.100000 -0.458000
v 0.727835 0.100000 -0.456310
v 0.754764 0.100000 -0.451232
v 0.779672 0.100000 -0.442750
v 0.802445 0.100000 -0.430852
v 0.822967 0.100000 -0.415523
v 0.841125 0.100000 -0.396750
v 0.856804 0.100000 -0.374519
v 0.869889 0.100000 -0.348815
v 0.880266 0.100000 -0.319625
v 0.887819 0.100000 -0.286935
v 0.892436 0.100000 -0.250731
v 0.894000 0.100000 -0.211000
v 0.578000 0.100000 -0.211000
v 0.582270 0.100000 -0.189648
v 0.588074 0.100000 -0.170097
v 0.595406 0.100000 -0.152359
v 0.604259 0.100000 -0.136444
v 0.614626 0.100000 -0.122363
v 0.626500 0.100000 -0.110125
v 0.639874 0.100000 -0.099741
v 0.654741 0.100000 -0.091222
v 0.671094 0.100000 -0.084578
v 0.688926 0.100000 -0.079819
v 0.708230 0.100000 -0.076957
v 0.729000 0.100000 -0.076000
v 0.742440 0.100000 -0.076413
v 0.755769 0.100000 -0.077639
v 0.769000 0.100000 -0.079656
v 0.782148 0.100000 -0.082444
v 0.795227 0.100000 -0.085983
v 0.808250 0.100000 -0.090250
v 0.821232 0.100000 -0.095226
v 0.834185 0.100000 -0.100889
v 0.847125 0.100000 -0.107219
v 0.860065 0.100000 -0.114194
v 0.873019 0.100000 -0.121795
v 0.886000 0.100000 -0.130000
v 0.886000 0.100000 -0.044000
v 0.804507 0.100000 -0.286469
v 0.801556 0.100000 -0.301833
v 0.797188 0.100000 -0.316031
v 0.791445 0.100000 -0.329000
v 0.784368 0.100000 -0.340677
v 0.776000 0.100000 -0.351000
v 0.766382 0.100000 -0.359906
v 0.755556 0.100000 -0.367333
v 0.743563 0.100000 -0.373219
v 0.730445 0.100000 -0.377500
v 0.716243 0.100000 -0.380115
v 0.701000 0.100000 -0.381000
v 0.684564 0.100000 -0.380172
v 0.669259 0.100000 -0.377708
v 0.655094 0.100000 -0.373641
v 0.642074 0.100000 -0.368000
v 0.630207 0.100000 -0.360818
v 0.619500 0.100000 -0.352125
v 0.609960 0.100000 -0.341953
v 0.601593 0.100000 -0.330333
v 0.594406 0.100000 -0.317297
v 0.588408 0.100000 -0.302875
v 0.583603 0.100000 -0.287099
v 0.580000 0.100000 -0.270000
v 0.806000 0.100000 -0.270000
v 0.294000 0.100000 0.000000
v 0.294000 0.100000 -0.682000
v 0.383000 0.100000 -0.682000
v 0.383000 0.100000 0.000000
v 0.205000 0.100000 -0.449000
v 0.205000 0.100000 -0.369000
v 0.063000 0.100000 -0.369000
v 0.063000 0.100000 -0.139000
v 0.063763 0.100000 -0.126528
v 0.065935 0.100000 -0.115560
v 0.069344 0.100000 -0.106016
v 0.073815 0.100000 -0.097815
v 0.079175 0.100000 -0.090878
v 0.085250 0.100000 -0.085125
v 0.091867 0.100000 -0.080476
v 0.098852 0.100000 -0.076852
v 0.106031 0.100000 -0.074172
v 0.113232 0.100000 -0.072356
v 0.120279 0.100000 -0.071326
v 0.127000 0.100000 -0.071000
v 0.135022 0.100000 -0.071229
v 0.143093 0.100000 -0.071917
v 0.151219 0.100000 -0.073063
v 0.159407 0.100000 -0.074667
v 0.167666 0.100000 -0.076729
v 0.176000 0.100000 -0.079250
v 0.184418 0.100000 -0.082229
v 0.192926 0.100000 -0.085667
v 0.201531 0.100000 -0.089563
v 0.210241 0.100000 -0.093917
v 0.219061 0.100000 -0.098729
v 0.228000 0.100000 -0.104000
v 0.228000 0.100000 -0.021000
v 0.219917 0.100000 -0.016839
v 0.211250 0.100000 -0.012875
v 0.202125 0.100000 -0.009141
v 0.192667 0.100000 -0.005667
v 0.183000 0.100000 -0.002484
v 0.173250 0.100000 0.000375
v 0.163542 0.100000 0.002880
v 0.154000 0.100000 0.005000
v 0.144750 0.100000 0.006703
v 0.135917 0.100000 0.007958
v 0.127625 0.100000 0.008734
v 0.120000 0.100000 0.009000
v 0.096751 0.100000 0.007773
v 0.075505 0.100000 0.004181
v 0.056266 0.100000 -0.001641
v 0.039037 0.100000 -0.009556
v 0.023822 0.100000 -0.019429
v 0.010625 0.100000 -0.031125
v -0.000551 0.100000 -0.044509
v -0.009704 0.100000 -0.059444
v -0.016828 0.100000 -0.075797
v -0.021921 0.100000 -0.093431
v -0.024980 0.100000 -0.112210
v -0.026000 0.100000 -0.132000
v -0.026000 0.100000 -0.369000
v -0.104000 0.100000 -0.369000
v -0.104000 0.100000 -0.379000
v 0.063000 0.100000 -0.542000
v 0.063000 0.100000 -0.449000
v -0.220135 0.100000 -0.532489
v -0.226995 0.100000 -0.533912
v -0.233516 0.100000 -0.536203
v -0.239630 0.100000 -0.539296
v -0.245271 0.100000 -0.543126
v -0.250375 0.100000 -0.547625
v -0.254874 0.100000 -0.552729
v -0.258704 0.100000 -0.558370
v -0.261797 0.100000 -0.564484
v -0.264088 0.100000 -0.571005
v -0.265511 0.100000 -0.577865
v -0.266000 0.100000 -0.585000
v -0.265511 0.100000 -0.592135
v -0.264088 0.100000 -0.598995
v -0.261797 0.100000 -0.605516
v -0.258704 0.100000 -0.611630
v -0.254874 0.100000 -0.617271
v -0.250375 0.100000 -0.622375
v -0.245271 0.100000 -0.626874
v -0.239630 0.100000 -0.630704
v -0.233516 0.100000 -0.633797
v -0.226995 0.100000 -0.636088
v -0.220135 0.100000 -0.637511
v -0.213000 0.100000 -0.638000
v -0.205865 0.100000 -0.637511
v -0.199005 0.100000 -0.636088
v -0.192484 0.100000 -0.633797
v -0.186370 0.100000 -0.630704
v -0.180729 0.100000 -0.626875
v -0.175625 0.100000 -0.622375
v -0.171126 0.100000 -0.617271
v -0.167296 0.100000 -0.611630
v -0.164203 0.100000 -0.605516
v -0.161912 0.100000 -0.598995
v -0.160489 0.100000 -0.592135
v -0.160000 0.100000 -0.585000
v -0.160489 0.100000 -0.577865
v -0.161912 0.100000 -0.571005
v -0.164203 0.100000 -0.564484
v -0.167296 0.100000 -0.558370
v -0.171126 0.100000 -0.552729
v -0.175625 0.100000 -0.547625
v -0.180729 0.100000 -0.543126
v -0.186370 0.100000 -0.539296
v -0.192484 0.100000 -0.536203
v -0.199005 0.100000 -0.533912
v -0.205865 0.100000 -0.532489
v -0.213000 0.100000 -0.532000
v -0.258000 0.100000 0.000000
v -0.258000 0.100000 -0.449000
v -0.169000 0.100000 -0.449000
v -0.169000 0.100000 0.000000
v -0.576000 0.100000 -0.594000
v -0.576000 0.100000 0.000000
v -0.674000 0.100000 0.000000
v -0.674000 0.100000 -0.594000
v -0.910000 0.100000 -0.594000
v -0.910000 0.100000 -0.682000
v -0.340000 0.100000 -0.682000
v -0.340000 0.100000 -0.594000
v 0.872586 -0.100000 -0.035395
v 0.859268 -0.100000 -0.027574
v 0.845937 -0.100000 -0.020531
v 0.832482 -0.100000 -0.014259
v 0.818789 -0.100000 -0.008751
v 0.804750 -0.100000 -0.004000
v 0.790252 -0.100000 0.000001
v 0.775185 -0.100000 0.003259
v 0.759438 -0.100000 0.005781
v 0.742898 -0.100000 0.007574
v 0.725456 -0.100000 0.008645
v 0.707000 -0.100000 0.009000
v 0.673301 -0.100000 0.006665
v 0.642241 -0.100000 -0.000093
v 0.613875 -0.100000 -0.010906
v 0.588259 -0.100000 -0.025407
v 0.565449 -0.100000 -0.043228
v 0.545500 -0.100000 -0.064000
v 0.528468 -0.100000 -0.087355
v 0.514407 -0.100000 -0.112926
v 0.503375 -0.100000 -0.140344
v 0.495426 -0.100000 -0.169241
v 0.490616 -0.100000 -0.199249
v 0.489000 -0.100000 -0.230000
v 0.490764 -0.100000 -0.263056
v 0.495944 -0.100000 -0.294111
v 0.504375 -0.100000 -0.323000
v 0.515889 -0.100000 -0.349556
v 0.530320 -0.100000 -0.373611
v 0.547500 -0.100000 -0.395000
v 0.567264 -0.100000 -0.413556
v 0.589445 -0.100000 -0.429111
v 0.613875 -0.100000 -0.441500
v 0.640389 -0.100000 -0.450556
v 0.668820 -0.100000 -0.456111
v 0.699000 -0.100000 -0.458000
v 0.727835 -0.100000 -0.456310
v 0.754764 -0.100000 -0.451232
v 0.779672 -0.100000 -0.442750
v 0.802445 -0.100000 -0.430852
v 0.822967 -0.100000 -0.415523
v 0.841125 -0.100000 -0.396750
v 0.856804 -0.100000 -0.374519
v 0.869889 -0.100000 -0.348815
v 0.880266 -0.100000 -0.319625
v 0.887819 -0.100000 -0.286935
v 0.892436 -0.100000 -0.250731
v 0.894000 -0.100000 -0.211000
v 0.578000 -0.100000 -0.211000
v 0.582270 -0.100000 -0.189648
v 0.588074 -0.100000 -0.170097
v 0.595406 -0.100000 -0.152359
v 0.604259 -0.100000 -0.136444
v 0.614626 -0.100000 -0.122363
v 0.626500 -0.100000 -0.110125
v 0.639874 -0.100000 -0.099741
v 0.654741 -0.100000 -0.091222
v 0.671094 -0.100000 -0.084578
v 0.688926 -0.100000 -0.079819
v 0.708230 -0.100000 -0.076957
v 0.729000 -0.100000 -0.076000
v 0.742440 -0.100000 -0.076413
v 0.755769 -0.100000 -0.077639
v 0.769000 -0.100000 -0.079656
v 0.782148 -0.100000 -0.082444
v 0.795227 -0.100000 -0.085983
v 0.808250 -0.100000 -0.090250
v 0.821232 -0.100000 -0.095226
v 0.834185 -0.100000 -0.100889
v 0.847125 -0.100000 -0.107219
v 0.860065 -0.100000 -0.114194
v 0.873019 -0.100000 -0.121795
v 0.886000 -0.100000 -0.130000
v 0.886000 -0.100000 -0.044000
v 0.804507 -0.100000 -0.286469
v 0.801556 -0.100000 -0.301833
v 0.797188 -0.100000 -0.316031
v 0.791445 -0.100000 -0.329000
v 0.784368 -0.100000 -0.340677
v 0.776000 -0.100000 -0.351000
v 0.766382 -0.100000 -0.359906
v 0.755556 -0.100000 -0.367333
v 0.743563 -0.100000 -0.373219
v 0.730445 -0.100000 -0.377500
v 0.716243 -0.100000 -0.380115
v 0.701000 -0.100000 -0.381000
v 0.684564 -0.100000 -0.380172
v 0.669259 -0.100000 -0.377708
v 0.655094 -0.100000 -0.373641
v 0.642074 -0.100000 -0.368000
v 0.630207 -0.100000 -0.360818
v 0.619500 -0.100000 -0.352125
v 0.609960 -0.100000 -0.341953
v 0.601593 -0.100000 -0.330333
v 0.594406 -0.100000 -0.317297
v 0.588408 -0.100000 -0.302875
v 0.583603 -0.100000 -0.287099
v 0.580000 -0.100000 -0.270000
v 0.806000 -0.100000 -0.270000
v 0.294000 -0.100000 0.000000
v 0.294000 -0.100000 -0.682000
v 0.383000 -0.100000 -0.682000
v 0.383000 -0.100000 0.000000
v 0.205000 -0.100000 -0.449000
v 0.205000 -0.100000 -0.369000
v 0.063000 -0.100000 -0.369000
v 0.063000 -0.100000 -0.139000
v 0.063763 -0.100000 -0.126528
v 0.065935 -0.100000 -0.115560
v 0.069344 -0.100000 -0.106016
v 0.073815 -0.100000 -0.097815
v 0.079175 -0.100000 -0.090878
v 0.085250 -0.100000 -0.085125
v 0.091867 -0.100000 -0.080476
v 0.098852 -0.100000 -0.076852
v 0.106031 -0.100000 -0.074172
v 0.113232 -0.100000 -0.072356
v 0.120279 -0.100000 -0.071326
v 0.127000 -0.100000 -0.071000
v 0.135022 -0.100000 -0.071229
v 0.143093 -0.100000 -0.071917
v 0.151219 -0.100000 -0.073063
v 0.159407 -0.100000 -0.074667
v 0.167666 -0.100000 -0.076729
v 0.176000 -0.100000 -0.079250
v 0.184418 -0.100000 -0.082229
v 0.192926 -0.100000 -0.085667
v 0.201531 -0.100000 -0.089563
v 0.210241 -0.100000 -0.093917
v 0.219061 -0.100000 -0.098729
v 0.228000 -0.100000 -0.104000
v 0.228000 -0.100000 -0.021000
v 0.219917 -0.100000 -0.016839
v 0.211250 -0.100000 -0.012875
v 0.202125 -0.100000 -0.009141
v 0.192667 -0.100000 -0.005667
v 0.183000 -0.100000 -0.002484
v 0.173250 -0.100000 0.000375
v 0.163542 -0.100000 0.002880
v 0.154000 -0.100000 0.005000
v 0.144750 -0.100000 0.006703
v 0.135917 -0.100000 0.007958
v 0.127625 -0.100000 0.008734
v 0.120000 -0.100000 0.009000
v 0.096751 -0.100000 0.007773
v 0.075505 -0.100000 0.004181
v 0.056266 -0.100000 -0.001641
v 0.039037 -0.100000 -0.009556
v 0.023822 -0.100000 -0.019429
v 0.010625 -0.100000 -0.031125
v -0.000551 -0.100000 -0.044509
v -0.009704 -0.100000 -0.059444
v -0.016828 -0.100000 -0.075797
v -0.021921 -0.100000 -0.093431
v -0.024980 -0.100000 -0.112210
v -0.026000 -0.100000 -0.132000
v -0.026000 -0.100000 -0.369000
v -0.104000 -0.100000 -0.369000
v -0.104000 -0.100000 -0.379000
v 0.063000 -0.100000 -0.542000
v 0.063000 -0.100000 -0.449000
v -0.220135 -0.100000 -0.532489
v -0.226995 -0.100000 -0.533912
v -0.233516 -0.100000 -0.536203
v -0.239630 -0.100000 -0.539296
v -0.245271 -0.100000 -0.543126
v -0.250375 -0.100000 -0.547625
v -0.254874 -0.100000 -0.552729
v -0.258704 -0.100000 -0.558370
v -0.261797 -0.100000 -0.564484
v -0.264088 -0.100000 -0.571005
v -0.265511 -0.100000 -0.577865
v -0.266000 -0.100000 -0.585000
v -0.265511 -0.100000 -0.592135
v -0.264088 -0.100000 -0.598995
v -0.261797 -0.100000 -0.605516
v -0.258704 -0.100000 -0.611630
v -0.254874 -0.100000 -0.617271
v -0.250375 -0.100000 -0.622375
v -0.245271 -0.100000 -0.626874
v -0.239630 -0.100000 -0.630704
v -0.233516 -0.100000 -0.633797
v -0.226995 -0.100000 -0.636088
v -0.220135 -0.100000 -0.637511
v -0.213000 -0.100000 -0.638000
v -0.205865 -0.100000 -0.637511
v -0.199005 -0.100000 -0.636088
v -0.192484 -0.100000 -0.633797
v -0.186370 -0.100000 -0.630704
v -0.180729 -0.100000 -0.626875
v -0.175625 -0.100000 -0.622375
v -0.171126 -0.100000 -0.617271
v -0.167296 -0.100000 -0.611630
v -0.164203 -0.100000 -0.605516
v -0.161912 -0.100000 -0.598995
v -0.160489 -0.100000 -0.592135
v -0.160000 -0.100000 -0.585000
v -0.160489 -0.100000 -0.577865
v -0.161912 -0.100000 -0.571005
v -0.164203 -0.100000 -0.564484
v -0.167296 -0.100000 -0.558370
v -0.171126 -0.100000 -0.552729
v -0.175625 -0.100000 -0.547625
v -0.180729 -0.100000 -0.543126
v -0.186370 -0.100000 -0.539296
v -0.192484 -0.100000 -0.536203
v -0.199005 -0.100000 -0.533912
v -0.205865 -0.100000 -0.532489
v -0.213000 -0.100000 -0.532000
v -0.258000 -0.100000 0.000000
v -0.258000 -0.100000 -0.449000
v -0.169000 -0.100000 -0.449000
v -0.169000 -0.100000 0.000000
v -0.576000 -0.100000 -0.594000
v -0.576000 -0.100000 0.000000
v -0.674000 -0.100000 0.000000
v -0.674000 -0.100000 -0.594000
v -0.910000 -0.100000 -0.594000
v -0.910000 -0.100000 -0.682000
v -0.340000 -0.100000 -0.682000
v -0.340000 -0.100000 -0.594000
v -0.576000 -0.100000 -0.594000
v -0.576000 0.100000 -0.594000
v -0.576000 -0.100000 0.000000
v -0.576000 0.100000 0.000000
v -0.674000 -0.100000 0.000000
v -0.674000 0.100000 0.000000
v -0.674000 -0.100000 -0.594000
v -0.674000 0.100000 -0.594000
v -0.910000 -0.100000 -0.594000
v -0.910000 0.100000 -0.594000
v -0.910000 -0.100000 -0.682000
v -0.910000 0.100000 -0.682000
v -0.340000 -0.100000 -0.682000
v -0.340000 0.100000 -0.682000
v -0.340000 -0.100000 -0.594000
v -0.340000 0.100000 -0.594000
v -0.258000 -0.100000 0.000000
v -0.258000 0.100000 0.000000
v -0.258000 -0.100000 -0.449000
v -0.258000 0.100000 -0.449000
v -0.169000 -0.100000 -0.449000
v -0.169000 0.100000 -0.449000
v -0.169000 -0.100000 0.000000
v -0.169000 0.100000 0.000000
v -0.220135 -0.100000 -0.532489
v -0.220135 0.100000 -0.532489
v -0.226995 -0.100000 -0.533912
v -0.226995 0.100000 -0.533912
v -0.233516 -0.100000 -0.536203
v -0.233516 0.100000 -0.536203
v -0.239630 -0.100000 -0.539296
v -0.239630 0.100000 -0.539296
v -0.245271 -0.100000 -0.543126
v -0.245271 0.100000 -0.543126
v -0.250375 -0.100000 -0.547625
v -0.250375 0.100000 -0.547625
v -0.254874 -0.100000 -0.552729
v -0.254874 0.100000 -0.552729
v -0.258704 -0.100000 -0.558370
v -0.258704 0.100000 -0.558370
v -0.261797 -0.100000 -0.564484
v -0.261797 0.100000 -0.564484
v -0.264088 -0.100000 -0.571005
v -0.264088 0.100000 -0.571005
v -0.265511 -0.100000 -0.577865
v -0.265511 0.100000 -0.577865
v -0.266000 -0.100000 -0.585000
v -0.266000 0.100000 -0.585000
v -0.265511 -0.100000 -0.592135
v -0.265511 0.100000 -0.592135
v -0.264088 -0.100000 -0.598995
v -0.264088 0.100000 -0.598995
v -0.261797 -0.100000 -0.605516
v -0.261797 0.100000 -0.605516
v -0.258704 -0.100000 -0.611630
v -0.258704 0.100000 -0.611630
v -0.254874 -0.100000 -0.617271
v -0.254874 0.100000 -0.617271
v -0.250375 -0.100000 -0.622375
v -0.250375 0.100000 -0.622375
v -0.245271 -0.100000 -0.626874
v -0.245271 0.100000 -0.626874
v -0.239630 -0.100000 -0.630704
v -0.239630 0.100000 -0.630704
v -0.233516 -0.100000 -0.633797
v -0.233516 0.100000 -0.633797
v -0.226995 -0.100000 -0.636088
v -0.226995 0.100000 -0.636088
v -0.220135 -0.100000 -0.637511
v -0.220135 0.100000 -0.637511
v -0.213000 -0.100000 -0.638000
v -0.213000 0.100000 -0.638000
v -0.205865 -0.100000 -0.637511
v -0.205865 0.100000 -0.637511
v -0.199005 -0.100000 -0.636088
v -0.199005 0.100000 -0.636088
v -0.192484 -0.100000 -0.633797
v -0.192484 0.100000 -0.633797
v -0.186370 -0.100000 -0.630704
v -0.186370 0.100000 -0.630704
v -0.180729 -0.100000 -0.626875
v -0.180729 0.100000 -0.626875
v -0.175625 -0.100000 -0.622375
v -0.175625 0.100000 -0.622375
v -0.171126 -0.100000 -0.617271
v -0.171126 0.100000 -0.617271
v -0.167296 -0.100000 -0.611630
v -0.167296 0.100000 -0.611630
v -0.164203 -0.100000 -0.605516
v -0.164203 0.100000 -0.605516
v -0.161912 -0.100000 -0.598995
v -0.161912 0.100000 -0.598995
v -0.160489 -0.100000 -0.592135
v -0.160489 0.100000 -0.592135
v -0.160000 -0.100000 -0.585000
v -0.160000 0.100000 -0.585000
v -0.160489 -0.100000 -0.577865
v -0.160489 0.100000 -0.577865
v -0.161912 -0.100000 -0.571005
v -0.161912 0.100000 -0.571005
v -0.164203 -0.100000 -0.564484
v -0.164203 0.100000 -0.564484
v -0.167296 -0.100000 -0.558370
v -0.167296 0.100000 -0.558370
v -0.171126 -0.100000 -0.552729
v -0.171126 0.100000 -0.552729
v -0.175625 -0.100000 -0.547625
v -0.175625 0.100000 -0.547625
v -0.180729 -0.100000 -0.543126
v -0.180729 0.100000 -0.543126
v -0.186370 -0.100000 -0.539296
v -0.186370 0.100000 -0.539296
v -0.192484 -0.100000 -0.536203
v -0.192484 0.100000 -0.536203
v -0.199005 -0.100000 -0.533912
v -0.199005 0.100000 -0.533912
v -0.205865 -0.100000 -0.532489
v -0.205865 0.100000 -0.532489
v -0.213000 -0.100000 -0.532000
v -0.213000 0.100000 -0.532000
v 0.205000 -0.100000 -0.449000
v 0.205000 0.100000 -0.449000
v 0.205000 -0.100000 -0.369000
v 0.205000 0.100000 -0.369000
v 0.063000 -0.100000 -0.369000
v 0.063000 0.100000 -0.369000
v 0.063000 -0.100000 -0.139000
v 0.063000 0.100000 -0.139000
v 0.063763 -0.100000 -0.126528
v 0.063763 0.100000 -0.126528
v 0.065935 -0.100000 -0.115560
v 0.065935 0.100000 -0.115560
v 0.069344 -0.100000 -0.106016
v 0.069344 0.100000 -0.106016
v 0.073815 -0.100000 -0.097815
v 0.073815 0.100000 -0.097815
v 0.079175 -0.100000 -0.090878
v 0.079175 0.100000 -0.090878
v 0.085250 -0.100000 -0.085125
v 0.085250 0.100000 -0.085125
v 0.091867 -0.100000 -0.080476
v 0.091867 0.100000 -0.080476
v 0.098852 -0.100000 -0.076852
v 0.098852 0.100000 -0.076852
v 0.106031 -0.100000 -0.074172
v 0.106031 0.100000 -0.074172
v 0.113232 -0.100000 -0.072356
v 0.113232 0.100000 -0.072356
v 0.120279 -0.100000 -0.071326
v 0.120279 0.100000 -0.071326
v 0.127000 -0.100000 -0.071000
v 0.127000 0.100000 -0.071000
v 0.135022 -0.100000 -0.071229
v 0.135022 0.100000 -0.071229
v 0.143093 -0.100000 -0.071917
v 0.143093 0.100000 -0.071917
v 0.151219 -0.100000 -0.073063
v 0.151219 0.100000 -0.073063
v 0.159407 -0.100000 -0.074667
v 0.159407 0.100000 -0.074667
v 0.167666 -0.100000 -0.076729
v 0.167666 0.100000 -0.076729
v 0.176000 -0.100000 -0.079250
v 0.176000 0.100000 -0.079250
v 0.184418 -0.100000 -0.082229
v 0.184418 0.100000 -0.082229
v 0.192926 -0.100000 -0.085667
v 0.192926 0.100000 -0.085667
v 0.201531 -0.100000 -0.089563
v 0.201531 0.100000 -0.089563
v 0.210241 -0.100000 -0.093917
v 0.210241 0.100000 -0.093917
v 0.219061 -0.100000 -0.098729
v 0.219061 0.100000 -0.098729
v 0.228000 -0.100000 -0.104000
v 0.228000 0.100000 -0.104000
v 0.228000 -0.100000 -0.021000
v 0.228000 0.100000 -0.021000
v 0.219917 -0.100000 -0.016839
v 0.219917 0.100000 -0.016839
v 0.211250 -0.100000 -0.012875
v 0.211250 0.100000 -0.012875
v 0.202125 -0.100000 -0.009141
v 0.202125 0.100000 -0.009141
v 0.192667 -0.100000 -0.005667
v 0.192667 0.100000 -0.005667
v 0.183000 -0.100000 -0.002484
v 0.183000 0.100000 -0.002484
v 0.173250 -0.100000 0.000375
v 0.173250 0.100000 0.000375
v 0.163542 -0.100000 0.002880
v 0.163542 0.100000 0.002880
v 0.154000 -0.100000 0.005000
v 0.154000 0.100000 0.005000
v 0.144750 -0.100000 0.006703
v 0.144750 0.100000 0.006703
v 0.135917 -0.100000 0.007958
v 0.135917 0.100000 0.007958
v 0.127625 -0.100000 0.008734
v 0.127625 0.100000 0.008734
v 0.120000 -0.100000 0.009000
v 0.120000 0.100000 0.009000
v 0.096751 -0.100000 0.007773
v 0.096751 0.100000 0.007773
v 0.075505 -0.100000 0.004181
v 0.075505 0.100000 0.004181
v 0.056266 -0.100000 -0.001641
v 0.056266 0.100000 -0.001641
v 0.039037 -0.100000 -0.009556
v 0.039037 0.100000 -0.009556
v 0.023822 -0.100000 -0.019429
v 0.023822 0.100000 -0.019429
v 0.010625 -0.100000 -0.031125
v 0.010625 0.100000 -0.031125
v -0.000551 -0.100000 -0.044509
v -0.000551 0.100000 -0.044509
v -0.009704 -0.100000 -0.059444
v -0.009704 0.100000 -0.059444
v -0.016828 -0.100000 -0.075797
v -0.016828 0.100000 -0.075797
v -0.021921 -0.100000 -0.093431
v -0.021921 0.100000 -0.093431
v -0.024980 -0.100000 -0.112210
v -0.024980 0.100000 -0.112210
v -0.026000 -0.100000 -0.132000
v -0.026000 0.100000 -0.132000
v -0.026000 -0.100000 -0.369000
v -0.026000 0.100000 -0.369000
v -0.104000 -0.100000 -0.369000
v -0.104000 0.100000 -0.369000
v -0.104000 -0.100000 -0.379000
v -0.104000 0.100000 -0.379000
v 0.063000 -0.100000 -0.542000
v 0.063000 0.100000 -0.542000
v 0.063000 -0.100000 -0.449000
v 0.063000 0.100000 -0.449000
v 0.294000 -0.100000 0.000000
v 0.294000 0.100000 0.000000
v 0.294000 -0.100000 -0.682000
v 0.294000 0.100000 -0.682000
v 0.383000 -0.100000 -0.682000
v 0.383000 0.100000 -0.682000
v 0.383000 -0.100000 0.000000
v 0.383000 0.100000 0.000000
v 0.872586 -0.100000 -0.035395
v 0.872586 0.100000 -0.035395
v 0.859268 -0.100000 -0.027574
v 0.859268 0.100000 -0.027574
v 0.845937 -0.100000 -0.020531
v 0.845937 0.100000 -0.020531
v 0.832482 -0.100000 -0.014259
v 0.832482 0.100000 -0.014259
v 0.818789 -0.100000 -0.008751
v 0.818789 0.100000 -0.008751
v 0.804750 -0.100000 -0.004000
v 0.804750 0.100000 -0.004000
v 0.790252 -0.100000 0.000001
v 0.790252 0.100000 0.000001
v 0.775185 -0.100000 0.003259
v 0.775185 0.100000 0.003259
v 0.759438 -0.100000 0.005781
v 0.759438 0.100000 0.005781
v 0.742898 -0.100000 0.007574
v 0.742898 0.100000 0.007574
v 0.725456 -0.100000 0.008645
v 0.725456 0.100000 0.008645
v 0.707000 -0.100000 0.009000
v 0.707000 0.100000 0.009000
v 0.673301 -0.100000 0.006665
v 0.673301 0.100000 0.006665
v 0.642241 -0.100000 -0.000093
v 0.642241 0.100000 -0.000093
v 0.613875 -0.100000 -0.010906
v 0.613875 0.100000 -0.010906
v 0.588259 -0.100000 -0.025407
v 0.588259 0.100000 -0.025407
v 0.565449 -0.100000 -0.043228
v 0.565449 0.100000 -0.043228
v 0.545500 -0.100000 -0.064000
v 0.545500 0.100000 -0.064000
v 0.528468 -0.100000 -0.087355
v 0.528468 0.100000 -0.087355
v 0.514407 -0.100000 -0.112926
v 0.514407 0.100000 -0.112926
v 0.503375 -0.100000 -0.140344
v 0.503375 0.100000 -0.140344
v 0.495426 -0.100000 -0.169241
v 0.495426 0.100000 -0.169241
v 0.490616 -0.100000 -0.199249
v 0.490616 0.100000 -0.199249
v 0.489000 -0.100000 -0.230000
v 0.489000 0.100000 -0.230000
v 0.490764 -0.100000 -0.263056
v 0.490764 0.100000 -0.263056
v 0.495944 -0.100000 -0.294111
v 0.495944 0.100000 -0.294111
v 0.504375 -0.100000 -0.323000
v 0.504375 0.100000 -0.323000
v 0.515889 -0.100000 -0.349556
v 0.515889 0.100000 -0.349556
v 0.530320 -0.100000 -0.373611
v 0.530320 0.100000 -0.373611
v 0.547500 -0.100000 -0.395000
v 0.547500 0.100000 -0.395000
v 0.567264 -0.100000 -0.413556
v 0.567264 0.100000 -0.413556
v 0.589445 -0.100000 -0.429111
v 0.589445 0.100000 -0.429111
v 0.613875 -0.100000 -0.441500
v 0.613875 0.100000 -0.441500
v 0.640389 -0.100000 -0.450556
v 0.640389 0.100000 -0.450556
v 0.668820 -0.100000 -0.456111
v 0.668820 0.100000 -0.456111
v 0.699000 -0.100000 -0.458000
v 0.699000 0.100000 -0.458000
v 0.727835 -0.100000 -0.456310
v 0.727835 0.100000 -0.456310
v 0.754764 -0.100000 -0.451232
v 0.754764 0.100000 -0.451232
v 0.779672 -0.100000 -0.442750
v 0.779672 0.100000 -0.442750
v 0.802445 -0.100000 -0.430852
v 0.802445 0.100000 -0.430852
v 0.822967 -0.100000 -0.415523
v 0.822967 0.100000 -0.415523
v 0.841125 -0.100000 -0.396750
v 0.841125 0.100000 -0.396750
v 0.856804 -0.100000 -0.374519
v 0.856804 0.100000 -0.374519
v 0.869889 -0.100000 -0.348815
v 0.869889 0.100000 -0.348815
v 0.880266 -0.100000 -0.319625
v 0.880266 0.100000 -0.319625
v 0.887819 -0.100000 -0.286935
v 0.887819 0.100000 -0.286935
v 0.892436 -0.100000 -0.250731
v 0.892436 0.100000 -0.250731
v 0.894000 -0.100000 -0.211000
v 0.894000 0.100000 -0.211000
v 0.578000 -0.100000 -0.211000
v 0.578000 0.100000 -0.211000
v 0.582270 -0.100000 -0.189648
v 0.582270 0.100000 -0.189648
v 0.588074 -0.100000 -0.170097
v 0.588074 0.100000 -0.170097
v 0.595406 -0.100000 -0.152359
v 0.595406 0.100000 -0.152359
v 0.604259 -0.100000 -0.136444
v 0.604259 0.100000 -0.136444
v 0.614626 -0.100000 -0.122363
v 0.614626 0.100000 -0.122363
v 0.626500 -0.100000 -0.110125
v 0.626500 0.100000 -0.110125
v 0.639874 -0.100000 -0.099741
v 0.639874 0.100000 -0.099741
v 0.654741 -0.100000 -0.091222
v 0.654741 0.100000 -0.091222
v 0.671094 -0.100000 -0.084578
v 0.671094 0.100000 -0.084578
v 0.688926 -0.100000 -0.079819
v 0.688926 0.100000 -0.079819
v 0.708230 -0.100000 -0.076957
v 0.708230 0.100000 -0.076957
v 0.729000 -0.100000 -0.076000
v 0.729000 0.100000 -0.076000
v 0.742440 -0.100000 -0.076413
v 0.742440 0.100000 -0.076413
v 0.755769 -0.100000 -0.077639
v 0.755769 0.100000 -0.077639
v 0.769000 -0.100000 -0.079656
v 0.769000 0.100000 -0.079656
v 0.782148 -0.100000 -0.082444
v 0.782148 0.100000 -0.082444
v 0.795227 -0.100000 -0.085983
v 0.795227 0.100000 -0.085983
v 0.808250 -0.100000 -0.090250
v 0.808250 0.100000 -0.090250
v 0.821232 -0.100000 -0.095226
v 0.821232 0.100000 -0.095226
v 0.834185 -0.100000 -0.100889
v 0.834185 0.100000 -0.100889
v 0.847125 -0.100000 -0.107219
v 0.847125 0.100000 -0.107219
v 0.860065 -0.100000 -0.114194
v 0.860065 0.100000 -0.114194
v 0.873019 -0.100000 -0.121795
v 0.873019 0.100000 -0.121795
v 0.886000 -0.100000 -0.130000
v 0.886000 0.100000 -0.130000
v 0.886000 -0.100000 -0.044000
v 0.886000 0.100000 -0.044000
v 0.804507 -0.100000 -0.286469
v 0.804507 0.100000 -0.286469
v 0.801556 -0.100000 -0.301833
v 0.801556 0.100000 -0.301833
v 0.797188 -0.100000 -0.316031
v 0.797188 0.100000 -0.316031
v 0.791445 -0.100000 -0.329000
v 0.791445 0.100000 -0.329000
v 0.784368 -0.100000 -0.340677
v 0.784368 0.100000 -0.340677
v 0.776000 -0.100000 -0.351000
v 0.776000 0.100000 -0.351000
v 0.766382 -0.100000 -0.359906
v 0.766382 0.100000 -0.359906
v 0.755556 -0.100000 -0.367333
v 0.755556 0.100000 -0.367333
v 0.743563 -0.100000 -0.373219
v 0.743563 0.100000 -0.373219
v 0.730445 -0.100000 -0.377500
v 0.730445 0.100000 -0.377500
v 0.716243 -0.100000 -0.380115
v 0.716243 0.100000 -0.380115
v 0.701000 -0.100000 -0.381000
v 0.701000 0.100000 -0.381000
v 0.684564 -0.100000 -0.380172
v 0.684564 0.100000 -0.380172
v 0.669259 -0.100000 -0.377708
v 0.669259 0.100000 -0.377708
v 0.655094 -0.100000 -0.373641
v 0.655094 0.100000 -0.373641
v 0.642074 -0.100000 -0.368000
v 0.642074 0.100000 -0.368000
v 0.630207 -0.100000 -0.360818
v 0.630207 0.100000 -0.360818
v 0.619500 -0.100000 -0.352125
v 0.619500 0.100000 -0.352125
v 0.609960 -0.100000 -0.341953
v 0.609960 0.100000 -0.341953
v 0.601593 -0.100000 -0.330333
v 0.601593 0.100000 -0.330333
v 0.594406 -0.100000 -0.317297
v 0.594406 0.100000 -0.317297
v 0.588408 -0.100000 -0.302875
v 0.588408 0.100000 -0.302875
v 0.583603 -0.100000 -0.287099
v 0.583603 0.100000 -0.287099
v 0.580000 -0.100000 -0.270000
v 0.580000 0.100000 -0.270000
v 0.806000 -0.100000 -0.270000
v 0.806000 0.100000 -0.270000
vn -0.0000 1.0000 -0.0000
vn -0.0000 -1.0000 -0.0000
vn 0.7071 -0.0000 0.7071
vn -0.7071 -0.0000 0.7071
vn -0.7071 -0.0000 -0.7071
vn 0.7071 -0.0000 -0.7071
vn -0.2679 -0.0000 0.9634
vn -0.1361 -0.0000 0.9907
vn -0.3923 -0.0000 0.9198
vn -0.5076 -0.0000 0.8616
vn -0.6127 -0.0000 0.7903
vn -0.7903 -0.0000 0.6127
vn -0.8616 -0.0000 0.5076
vn -0.9198 -0.0000 0.3923
vn -0.9634 -0.0000 0.2679
vn -0.9907 -0.0000 0.1361
vn -1.0000 -0.0000 -0.0000
vn -0.9907 -0.0000 -0.1361
vn -0.9634 -0.0000 -0.2679
vn -0.9198 -0.0000 -0.3923
vn -0.8616 -0.0000 -0.5076
vn -0.7903 -0.0000 -0.6127
vn -0.6127 -0.0000 -0.7903
vn -0.5076 -0.0000 -0.8616
vn -0.3923 -0.0000 -0.9198
vn -0.2679 -0.0000 -0.9634
vn -0.1361 -0.0000 -0.9907
vn -0.0000 -0.0000 -1.0000
vn 0.1360 -0.0000 -0.9907
vn 0.2679 -0.0000 -0.9634
vn 0.3923 -0.0000 -0.9198
vn 0.5076 -0.0000 -0.8616
vn 0.6127 -0.0000 -0.7903
vn 0.7903 -0.0000 -0.6127
vn 0.8616 -0.0000 -0.5076
vn 0.9198 -0.0000 -0.3923
vn 0.9634 -0.0000 -0.2679
vn 0.9907 -0.0000 -0.1361
vn 1.0000 -0.0000 -0.0000
vn 0.9907 -0.0000 0.1361
vn 0.9634 -0.0000 0.2679
vn 0.9198 -0.0000 0.3923
vn 0.8616 -0.0000 0.5076
vn 0.7903 -0.0000 0.6127
vn 0.6127 -0.0000 0.7903
vn 0.5076 -0.0000 0.8616
vn 0.3923 -0.0000 0.9198
vn 0.2679 -0.0000 0.9634
vn 0.1361 -0.0000 0.9907
vn -0.0000 -0.0000 1.0000
vn 0.9995 -0.0000 -0.0305
vn 0.9918 -0.0000 -0.1280
vn 0.9640 -0.0000 -0.2660
vn 0.9126 -0.0000 -0.4087
vn 0.8373 -0.0000 -0.5468
vn 0.7417 -0.0000 -0.6708
vn 0.6329 -0.0000 -0.7742
vn 0.5189 -0.0000 -0.8548
vn 0.4059 -0.0000 -0.9139
vn 0.2975 -0.0000 -0.9547
vn 0.1948 -0.0000 -0.9808
vn 0.0967 -0.0000 -0.9953
vn 0.0099 -0.0000 -1.0000
vn -0.0567 -0.0000 -0.9984
vn -0.1123 -0.0000 -0.9937
vn -0.1660 -0.0000 -0.9861
vn -0.2174 -0.0000 -0.9761
vn -0.2660 -0.0000 -0.9640
vn -0.3117 -0.0000 -0.9502
vn -0.3542 -0.0000 -0.9352
vn -0.3936 -0.0000 -0.9193
vn -0.4299 -0.0000 -0.9029
vn -0.4631 -0.0000 -0.8863
vn -0.4935 -0.0000 -0.8697
vn 0.4960 -0.0000 -0.8683
vn 0.8537 -0.0000 0.5207
vn 0.4369 -0.0000 0.8995
vn 0.3974 -0.0000 0.9176
vn 0.3618 -0.0000 0.9322
vn 0.3288 -0.0000 0.9444
vn 0.2971 -0.0000 0.9548
vn 0.2657 -0.0000 0.9641
vn 0.2334 -0.0000 0.9724
vn 0.1990 -0.0000 0.9800
vn 0.1609 -0.0000 0.9870
vn 0.1170 -0.0000 0.9931
vn 0.0640 -0.0000 0.9979
vn -0.0090 -0.0000 1.0000
vn -0.1099 -0.0000 0.9939
vn -0.2286 -0.0000 0.9735
vn -0.3544 -0.0000 0.9351
vn -0.4822 -0.0000 0.8761
vn -0.6055 -0.0000 0.7958
vn -0.7174 -0.0000 0.6966
vn -0.8123 -0.0000 0.5833
vn -0.8868 -0.0000 0.4621
vn -0.9407 -0.0000 0.3392
vn -0.9756 -0.0000 0.2195
vn -0.9943 -0.0000 0.1063
vn -0.9997 -0.0000 0.0258
vn -0.9215 -0.0000 -0.3883
vn 0.3882 -0.0000 -0.9216
vn 0.4869 -0.0000 0.8735
vn 0.5233 -0.0000 0.8522
vn 0.4449 -0.0000 0.8956
vn 0.3980 -0.0000 0.9174
vn 0.3470 -0.0000 0.9379
vn 0.2934 -0.0000 0.9560
vn 0.2388 -0.0000 0.9711
vn 0.1848 -0.0000 0.9828
vn 0.1330 -0.0000 0.9911
vn 0.0845 -0.0000 0.9964
vn 0.0403 -0.0000 0.9992
vn -0.0250 -0.0000 0.9997
vn -0.1412 -0.0000 0.9900
vn -0.2852 -0.0000 0.9585
vn -0.4256 -0.0000 0.9049
vn -0.5557 -0.0000 0.8314
vn -0.6701 -0.0000 0.7422
vn -0.7664 -0.0000 0.6424
vn -0.8438 -0.0000 0.5366
vn -0.9036 -0.0000 0.4283
vn -0.9475 -0.0000 0.3198
vn -0.9773 -0.0000 0.2121
vn -0.9944 -0.0000 0.1055
vn -1.0000 -0.0000 -0.0004
vn -0.9940 -0.0000 -0.1091
vn -0.9749 -0.0000 -0.2227
vn -0.9406 -0.0000 -0.3396
vn -0.8894 -0.0000 -0.4571
vn -0.8205 -0.0000 -0.5717
vn -0.7339 -0.0000 -0.6793
vn -0.6309 -0.0000 -0.7758
vn -0.5145 -0.0000 -0.8575
vn -0.3887 -0.0000 -0.9214
vn -0.2581 -0.0000 -0.9661
vn -0.1274 -0.0000 -0.9919
vn -0.0020 -0.0000 -1.0000
vn 0.1222 -0.0000 -0.9925
vn 0.2545 -0.0000 -0.9671
vn 0.3939 -0.0000 -0.9192
vn 0.5325 -0.0000 -0.8465
vn 0.6607 -0.0000 -0.7506
vn 0.7703 -0.0000 -0.6377
vn 0.8564 -0.0000 -0.5163
vn 0.9186 -0.0000 -0.3951
vn 0.9599 -0.0000 -0.2805
vn 0.9844 -0.0000 -0.1760
vn 0.9966 -0.0000 -0.0830
vn 0.7209 -0.0000 0.6931
vn 0.9965 -0.0000 -0.0830
vn 0.7733 -0.0000 0.6340
vn 0.9706 -0.0000 -0.2406
vn 0.9427 -0.0000 -0.3338
vn 0.9005 -0.0000 -0.4348
vn 0.8413 -0.0000 -0.5406
vn 0.7633 -0.0000 -0.6461
vn 0.6671 -0.0000 -0.7449
vn 0.5566 -0.0000 -0.8308
vn 0.4378 -0.0000 -0.8991
vn 0.3177 -0.0000 -0.9482
vn 0.2026 -0.0000 -0.9793
vn 0.0965 -0.0000 -0.9953
vn 0.0076 -0.0000 -1.0000
vn -0.0612 -0.0000 -0.9981
vn -0.1212 -0.0000 -0.9926
vn -0.1792 -0.0000 -0.9838
vn -0.2344 -0.0000 -0.9721
vn -0.2864 -0.0000 -0.9581
vn -0.3347 -0.0000 -0.9423
vn -0.3793 -0.0000 -0.9253
vn -0.4201 -0.0000 -0.9075
vn -0.4571 -0.0000 -0.8894
vn -0.4904 -0.0000 -0.8715
vn -0.5202 -0.0000 -0.8540
vn 0.4825 -0.0000 -0.8759
vn 0.8775 -0.0000 0.4796
vn -0.9704 -0.0000 0.2417
vn -0.9902 -0.0000 0.1396
vn -0.9367 -0.0000 0.3501
vn -0.9703 -0.0000 0.2417
vn -0.8866 -0.0000 0.4625
vn -0.8179 -0.0000 0.5753
vn -0.7300 -0.0000 0.6835
vn -0.6242 -0.0000 0.7812
vn -0.5044 -0.0000 0.8634
vn -0.3763 -0.0000 0.9265
vn -0.2462 -0.0000 0.9692
vn -0.1198 -0.0000 0.9928
vn -0.0038 -0.0000 1.0000
vn 0.1048 -0.0000 0.9945
vn 0.2179 -0.0000 0.9760
vn 0.3375 -0.0000 0.9413
vn 0.4587 -0.0000 0.8886
vn 0.5754 -0.0000 0.8179
vn 0.6814 -0.0000 0.7319
vn 0.7721 -0.0000 0.6355
vn 0.8452 -0.0000 0.5345
vn 0.9009 -0.0000 0.4341
vn 0.9411 -0.0000 0.3381
vn 0.9685 -0.0000 0.2490
vn 0.7766 -0.0000 -0.6300
vn -0.7383 -0.0000 -0.6744
vt 0.346939 0.000000
vt 0.367347 0.000000
vt 0.357143 0.000000
vt 0.377551 0.000000
vt 0.336735 0.000000
vt 0.387755 0.000000
vt 0.326531 0.000000
vt 0.397959 0.000000
vt 0.316327 0.000000
vt 0.408163 0.000000
vt 0.306122 0.000000
vt 0.418367 0.000000
vt 0.295918 0.000000
vt 0.428571 0.000000
vt 0.285714 0.000000
vt 0.867347 0.000000
vt 0.877551 0.000000
vt 0.857143 0.000000
vt 0.887755 0.000000
vt 0.846939 0.000000
vt 0.897959 0.000000
vt 0.836735 0.000000
vt 0.438776 0.000000
vt 0.908163 0.000000
vt 0.275510 0.000000
vt 0.826531 0.000000
vt 0.918367 0.000000
vt 0.816327 0.000000
vt 0.928571 0.000000
vt 0.806122 0.000000
vt 0.938776 0.000000
vt 0.795918 0.000000
vt 0.265306 0.000000
vt 0.448980 0.000000
vt 0.948980 0.000000
vt 0.785714 0.000000
vt 0.959184 0.000000
vt 0.775510 0.000000
vt 0.255102 0.000000
vt 0.459184 0.000000
vt 0.969388 0.000000
vt 0.765306 0.000000
vt 0.979592 0.000000
vt 0.755102 0.000000
vt 0.244898 0.000000
vt 0.989796 0.000000
vt 0.469388 0.000000
vt 1.000000 0.000000
vt 0.234694 0.000000
vt 0.479592 0.000000
vt 0.224490 0.000000
vt 0.489796 0.000000
vt 0.500000 0.000000
vt 0.214286 0.000000
vt 0.510204 0.000000
vt 0.520408 0.000000
vt 0.204082 0.000000
vt 0.530612 0.000000
vt 0.193878 0.000000
vt 0.540816 0.000000
vt 0.724490 0.000000
vt 0.744898 0.000000
vt 0.734694 0.000000
vt 0.551020 0.000000
vt 0.714286 0.000000
vt 0.704082 0.000000
vt 0.183673 0.000000
vt 0.561224 0.000000
vt 0.693878 0.000000
vt 0.683673 0.000000
vt 0.571429 0.000000
vt 0.673469 0.000000
vt 0.581633 0.000000
vt 0.663265 0.000000
vt 0.173469 0.000000
vt 0.653061 0.000000
vt 0.591837 0.000000
vt 0.642857 0.000000
vt 0.602041 0.000000
vt 0.632653 0.000000
vt 0.622449 0.000000
vt 0.612245 0.000000
vt 0.163265 0.000000
vt 0.000000 0.000000
vt 0.153061 0.000000
vt 0.010204 0.000000
vt 0.020408 0.000000
vt 0.142857 0.000000
vt 0.030612 0.000000
vt 0.040816 0.000000
vt 0.132653 0.000000
vt 0.051020 0.000000
vt 0.061224 0.000000
vt 0.122449 0.000000
vt 0.071429 0.000000
vt 0.081633 0.000000
vt 0.091837 0.000000
vt 0.112245 0.000000
vt 0.102041 0.000000
vt 0.666667 0.000000
vt 0.333333 0.000000
vt 0.964912 0.000000
vt 0.982456 0.000000
vt 0.017544 0.000000
vt 0.947368 0.000000
vt 0.929825 0.000000
vt 0.912281 0.000000
vt 0.035088 0.000000
vt 0.052632 0.000000
vt 0.070175 0.000000
vt 0.894737 0.000000
vt 0.087719 0.000000
vt 0.105263 0.000000
vt 0.877193 0.000000
vt 0.122807 0.000000
vt 0.456140 0.000000
vt 0.491228 0.000000
vt 0.473684 0.000000
vt 0.438596 0.000000
vt 0.140351 0.000000
vt 0.421053 0.000000
vt 0.859649 0.000000
vt 0.157895 0.000000
vt 0.403509 0.000000
vt 0.385965 0.000000
vt 0.175439 0.000000
vt 0.368421 0.000000
vt 0.192982 0.000000
vt 0.350877 0.000000
vt 0.210526 0.000000
vt 0.842105 0.000000
vt 0.315789 0.000000
vt 0.228070 0.000000
vt 0.298246 0.000000
vt 0.245614 0.000000
vt 0.280702 0.000000
vt 0.263158 0.000000
vt 0.824561 0.000000
vt 0.807018 0.000000
vt 0.789474 0.000000
vt 0.508772 0.000000
vt 0.771930 0.000000
vt 0.526316 0.000000
vt 0.543860 0.000000
vt 0.754386 0.000000
vt 0.561404 0.000000
vt 0.578947 0.000000
vt 0.596491 0.000000
vt 0.736842 0.000000
vt 0.614035 0.000000
vt 0.631579 0.000000
vt 0.719298 0.000000
vt 0.649123 0.000000
vt 0.701754 0.000000
vt 0.684211 0.000000
vt 0.941176 0.000000
vt 0.980392 0.000000
vt 0.960784 0.000000
vt 0.431373 0.000000
vt 0.470588 0.000000
vt 0.450980 0.000000
vt 0.490196 0.000000
vt 0.411765 0.000000
vt 0.509804 0.000000
vt 0.392157 0.000000
vt 0.529412 0.000000
vt 0.372549 0.000000
vt 0.549020 0.000000
vt 0.352941 0.000000
vt 0.568627 0.000000
vt 0.588235 0.000000
vt 0.313726 0.000000
vt 0.607843 0.000000
vt 0.294118 0.000000
vt 0.627451 0.000000
vt 0.274510 0.000000
vt 0.647059 0.000000
vt 0.254902 0.000000
vt 0.235294 0.000000
vt 0.686275 0.000000
vt 0.215686 0.000000
vt 0.196078 0.000000
vt 0.705882 0.000000
vt 0.725490 0.000000
vt 0.176471 0.000000
vt 0.745098 0.000000
vt 0.156863 0.000000
vt 0.764706 0.000000
vt 0.137255 0.000000
vt 0.784314 0.000000
vt 0.117647 0.000000
vt 0.803922 0.000000
vt 0.098039 0.000000
vt 0.823529 0.000000
vt 0.078431 0.000000
vt 0.843137 0.000000
vt 0.058824 0.000000
vt 0.862745 0.000000
vt 0.039216 0.000000
vt 0.882353 0.000000
vt 0.019608 0.000000
vt 0.901961 0.000000
vt 0.921569 0.000000
vt 0.125000 1.000000
vt 0.000000 1.000000
vt 0.250000 1.000000
vt 0.125000 0.000000
vt 0.375000 1.000000
vt 0.250000 0.000000
vt 0.500000 1.000000
vt 0.375000 0.000000
vt 0.625000 1.000000
vt 0.750000 1.000000
vt 0.625000 0.000000
vt 0.875000 1.000000
vt 0.750000 0.000000
vt 1.000000 1.000000
vt 0.875000 0.000000
vt 0.020833 1.000000
vt 0.041667 1.000000
vt 0.020833 0.000000
vt 0.062500 1.000000
vt 0.041667 0.000000
vt 0.083333 1.000000
vt 0.062500 0.000000
vt 0.104167 1.000000
vt 0.083333 0.000000
vt 0.104167 0.000000
vt 0.145833 1.000000
vt 0.166667 1.000000
vt 0.145833 0.000000
vt 0.187500 1.000000
vt 0.166667 0.000000
vt 0.208333 1.000000
vt 0.187500 0.000000
vt 0.229167 1.000000
vt 0.208333 0.000000
vt 0.229167 0.000000
vt 0.270833 1.000000
vt 0.291667 1.000000
vt 0.270833 0.000000
vt 0.312500 1.000000
vt 0.291667 0.000000
vt 0.333333 1.000000
vt 0.312500 0.000000
vt 0.354167 1.000000
vt 0.354167 0.000000
vt 0.395833 1.000000
vt 0.416667 1.000000
vt 0.395833 0.000000
vt 0.437500 1.000000
vt 0.416667 0.000000
vt 0.458333 1.000000
vt 0.437500 0.000000
vt 0.479167 1.000000
vt 0.458333 0.000000
vt 0.479167 0.000000
vt 0.520833 1.000000
vt 0.541667 1.000000
vt 0.520833 0.000000
vt 0.562500 1.000000
vt 0.541667 0.000000
vt 0.583333 1.000000
vt 0.562500 0.000000
vt 0.604167 1.000000
vt 0.583333 0.000000
vt 0.604167 0.000000
vt 0.645833 1.000000
vt 0.666667 1.000000
vt 0.645833 0.000000
vt 0.687500 1.000000
vt 0.708333 1.000000
vt 0.687500 0.000000
vt 0.729167 1.000000
vt 0.708333 0.000000
vt 0.729167 0.000000
vt 0.770833 1.000000
vt 0.791667 1.000000
vt 0.770833 0.000000
vt 0.812500 1.000000
vt 0.791667 0.000000
vt 0.833333 1.000000
vt 0.812500 0.000000
vt 0.854167 1.000000
vt 0.833333 0.000000
vt 0.854167 0.000000
vt 0.895833 1.000000
vt 0.916667 1.000000
vt 0.895833 0.000000
vt 0.937500 1.000000
vt 0.916667 0.000000
vt 0.958333 1.000000
vt 0.937500 0.000000
vt 0.979167 1.000000
vt 0.958333 0.000000
vt 0.979167 0.000000
vt 0.017241 1.000000
vt 0.034483 1.000000
vt 0.017241 0.000000
vt 0.051724 1.000000
vt 0.034483 0.000000
vt 0.068966 1.000000
vt 0.051724 0.000000
vt 0.086207 1.000000
vt 0.068966 0.000000
vt 0.103448 1.000000
vt 0.086207 0.000000
vt 0.120690 1.000000
vt 0.103448 0.000000
vt 0.137931 1.000000
vt 0.120690 0.000000
vt 0.155172 1.000000
vt 0.137931 0.000000
vt 0.172414 1.000000
vt 0.155172 0.000000
vt 0.189655 1.000000
vt 0.172414 0.000000
vt 0.206897 1.000000
vt 0.189655 0.000000
vt 0.224138 1.000000
vt 0.206897 0.000000
vt 0.241379 1.000000
vt 0.224138 0.000000
vt 0.258621 1.000000
vt 0.241379 0.000000
vt 0.275862 1.000000
vt 0.258621 0.000000
vt 0.293103 1.000000
vt 0.275862 0.000000
vt 0.310345 1.000000
vt 0.293103 0.000000
vt 0.327586 1.000000
vt 0.310345 0.000000
vt 0.344828 1.000000
vt 0.327586 0.000000
vt 0.362069 1.000000
vt 0.344828 0.000000
vt 0.379310 1.000000
vt 0.362069 0.000000
vt 0.396552 1.000000
vt 0.379310 0.000000
vt 0.413793 1.000000
vt 0.396552 0.000000
vt 0.431034 1.000000
vt 0.413793 0.000000
vt 0.448276 1.000000
vt 0.431034 0.000000
vt 0.465517 1.000000
vt 0.448276 0.000000
vt 0.482759 1.000000
vt 0.465517 0.000000
vt 0.482759 0.000000
vt 0.517241 1.000000
vt 0.534483 1.000000
vt 0.517241 0.000000
vt 0.551724 1.000000
vt 0.534483 0.000000
vt 0.568965 1.000000
vt 0.551724 0.000000
vt 0.586207 1.000000
vt 0.568965 0.000000
vt 0.603448 1.000000
vt 0.586207 0.000000
vt 0.620690 1.000000
vt 0.603448 0.000000
vt 0.637931 1.000000
vt 0.620690 0.000000
vt 0.655172 1.000000
vt 0.637931 0.000000
vt 0.672414 1.000000
vt 0.655172 0.000000
vt 0.689655 1.000000
vt 0.672414 0.000000
vt 0.706897 1.000000
vt 0.689655 0.000000
vt 0.724138 1.000000
vt 0.706897 0.000000
vt 0.741379 1.000000
vt 0.724138 0.000000
vt 0.758621 1.000000
vt 0.741379 0.000000
vt 0.775862 1.000000
vt 0.758621 0.000000
vt 0.793103 1.000000
vt 0.775862 0.000000
vt 0.810345 1.000000
vt 0.793103 0.000000
vt 0.827586 1.000000
vt 0.810345 0.000000
vt 0.844828 1.000000
vt 0.827586 0.000000
vt 0.862069 1.000000
vt 0.844828 0.000000
vt 0.879310 1.000000
vt 0.862069 0.000000
vt 0.896552 1.000000
vt 0.879310 0.000000
vt 0.913793 1.000000
vt 0.896552 0.000000
vt 0.931035 1.000000
vt 0.913793 0.000000
vt 0.948276 1.000000
vt 0.931035 0.000000
vt 0.965517 1.000000
vt 0.948276 0.000000
vt 0.982759 1.000000
vt 0.965517 0.000000
vt 0.982759 0.000000
vt 0.013514 1.000000
vt 0.027027 1.000000
vt 0.013514 0.000000
vt 0.040541 1.000000
vt 0.027027 0.000000
vt 0.054054 1.000000
vt 0.040541 0.000000
vt 0.067568 1.000000
vt 0.054054 0.000000
vt 0.081081 1.000000
vt 0.067568 0.000000
vt 0.094595 1.000000
vt 0.081081 0.000000
vt 0.108108 1.000000
vt 0.094595 0.000000
vt 0.121622 1.000000
vt 0.108108 0.000000
vt 0.135135 1.000000
vt 0.121622 0.000000
vt 0.148649 1.000000
vt 0.135135 0.000000
vt 0.162162 1.000000
vt 0.148649 0.000000
vt 0.175676 1.000000
vt 0.162162 0.000000
vt 0.189189 1.000000
vt 0.175676 0.000000
vt 0.202703 1.000000
vt 0.189189 0.000000
vt 0.216216 1.000000
vt 0.202703 0.000000
vt 0.229730 1.000000
vt 0.216216 0.000000
vt 0.243243 1.000000
vt 0.229730 0.000000
vt 0.256757 1.000000
vt 0.243243 0.000000
vt 0.270270 1.000000
vt 0.256757 0.000000
vt 0.283784 1.000000
vt 0.270270 0.000000
vt 0.297297 1.000000
vt 0.283784 0.000000
vt 0.310811 1.000000
vt 0.297297 0.000000
vt 0.324324 1.000000
vt 0.310811 0.000000
vt 0.337838 1.000000
vt 0.324324 0.000000
vt 0.351351 1.000000
vt 0.337838 0.000000
vt 0.364865 1.000000
vt 0.351351 0.000000
vt 0.378378 1.000000
vt 0.364865 0.000000
vt 0.391892 1.000000
vt 0.378378 0.000000
vt 0.405405 1.000000
vt 0.391892 0.000000
vt 0.418919 1.000000
vt 0.405405 0.000000
vt 0.432432 1.000000
vt 0.418919 0.000000
vt 0.445946 1.000000
vt 0.432432 0.000000
vt 0.459459 1.000000
vt 0.445946 0.000000
vt 0.472973 1.000000
vt 0.459459 0.000000
vt 0.486486 1.000000
vt 0.472973 0.000000
vt 0.486486 0.000000
vt 0.513514 1.000000
vt 0.527027 1.000000
vt 0.513514 0.000000
vt 0.540541 1.000000
vt 0.527027 0.000000
vt 0.554054 1.000000
vt 0.540541 0.000000
vt 0.567568 1.000000
vt 0.554054 0.000000
vt 0.581081 1.000000
vt 0.567568 0.000000
vt 0.594595 1.000000
vt 0.581081 0.000000
vt 0.608108 1.000000
vt 0.594595 0.000000
vt 0.621622 1.000000
vt 0.608108 0.000000
vt 0.635135 1.000000
vt 0.621622 0.000000
vt 0.648649 1.000000
vt 0.635135 0.000000
vt 0.662162 1.000000
vt 0.648649 0.000000
vt 0.675676 1.000000
vt 0.662162 0.000000
vt 0.689189 1.000000
vt 0.675676 0.000000
vt 0.702703 1.000000
vt 0.689189 0.000000
vt 0.716216 1.000000
vt 0.702703 0.000000
vt 0.729730 1.000000
vt 0.716216 0.000000
vt 0.743243 1.000000
vt 0.729730 0.000000
vt 0.756757 1.000000
vt 0.743243 0.000000
vt 0.770270 1.000000
vt 0.756757 0.000000
vt 0.783784 1.000000
vt 0.770270 0.000000
vt 0.797297 1.000000
vt 0.783784 0.000000
vt 0.810811 1.000000
vt 0.797297 0.000000
vt 0.824324 1.000000
vt 0.810811 0.000000
vt 0.837838 1.000000
vt 0.824324 0.000000
vt 0.851351 1.000000
vt 0.837838 0.000000
vt 0.864865 1.000000
vt 0.851351 0.000000
vt 0.878378 1.000000
vt 0.864865 0.000000
vt 0.891892 1.000000
vt 0.878378 0.000000
vt 0.905405 1.000000
vt 0.891892 0.000000
vt 0.918919 1.000000
vt 0.905405 0.000000
vt 0.932432 1.000000
vt 0.918919 0.000000
vt 0.945946 1.000000
vt 0.932432 0.000000
vt 0.959459 1.000000
vt 0.945946 0.000000
vt 0.972973 1.000000
vt 0.959459 0.000000
vt 0.986486 1.000000
vt 0.972973 0.000000
vt 0.986486 0.000000
vt 0.040000 1.000000
vt 0.080000 1.000000
vt 0.040000 0.000000
vt 0.120000 1.000000
vt 0.080000 0.000000
vt 0.160000 1.000000
vt 0.120000 0.000000
vt 0.200000 1.000000
vt 0.160000 0.000000
vt 0.240000 1.000000
vt 0.200000 0.000000
vt 0.280000 1.000000
vt 0.240000 0.000000
vt 0.320000 1.000000
vt 0.280000 0.000000
vt 0.360000 1.000000
vt 0.320000 0.000000
vt 0.400000 1.000000
vt 0.360000 0.000000
vt 0.440000 1.000000
vt 0.400000 0.000000
vt 0.480000 1.000000
vt 0.440000 0.000000
vt 0.520000 1.000000
vt 0.480000 0.000000
vt 0.560000 1.000000
vt 0.520000 0.000000
vt 0.600000 1.000000
vt 0.560000 0.000000
vt 0.640000 1.000000
vt 0.600000 0.000000
vt 0.680000 1.000000
vt 0.640000 0.000000
vt 0.720000 1.000000
vt 0.680000 0.000000
vt 0.760000 1.000000
vt 0.720000 0.000000
vt 0.800000 1.000000
vt 0.760000 0.000000
vt 0.840000 1.000000
vt 0.800000 0.000000
vt 0.880000 1.000000
vt 0.840000 0.000000
vt 0.920000 1.000000
vt 0.880000 0.000000
vt 0.960000 1.000000
vt 0.920000 0.000000
vt 0.960000 0.000000
s 0
usemtl マテリアル.001
f 35/1/1 37/2/1 36/3/1
f 35/1/1 38/4/1 37/2/1
f 34/5/1 38/4/1 35/1/1
f 34/5/1 39/6/1 38/4/1
f 33/7/1 39/6/1 34/5/1
f 33/7/1 40/8/1 39/6/1
f 32/9/1 40/8/1 33/7/1
f 32/9/1 41/10/1 40/8/1
f 31/11/1 41/10/1 32/9/1
f 31/11/1 42/12/1 41/10/1
f 30/13/1 42/12/1 31/11/1
f 30/13/1 43/14/1 42/12/1
f 29/15/1 86/16/1 30/13/1
f 86/16/1 43/14/1 30/13/1
f 29/15/1 87/17/1 86/16/1
f 85/18/1 43/14/1 86/16/1
f 29/15/1 88/19/1 87/17/1
f 84/20/1 43/14/1 85/18/1
f 29/15/1 89/21/1 88/19/1
f 83/22/1 43/14/1 84/20/1
f 83/22/1 44/23/1 43/14/1
f 29/15/1 90/24/1 89/21/1
f 28/25/1 90/24/1 29/15/1
f 82/26/1 44/23/1 83/22/1
f 28/25/1 91/27/1 90/24/1
f 81/28/1 44/23/1 82/26/1
f 28/25/1 92/29/1 91/27/1
f 80/30/1 44/23/1 81/28/1
f 28/25/1 93/31/1 92/29/1
f 79/32/1 44/23/1 80/30/1
f 27/33/1 93/31/1 28/25/1
f 79/32/1 45/34/1 44/23/1
f 27/33/1 94/35/1 93/31/1
f 78/36/1 45/34/1 79/32/1
f 27/33/1 95/37/1 94/35/1
f 77/38/1 45/34/1 78/36/1
f 26/39/1 95/37/1 27/33/1
f 77/38/1 46/40/1 45/34/1
f 26/39/1 96/41/1 95/37/1
f 76/42/1 46/40/1 77/38/1
f 26/39/1 97/43/1 96/41/1
f 75/44/1 46/40/1 76/42/1
f 25/45/1 97/43/1 26/39/1
f 25/45/1 98/46/1 97/43/1
f 75/44/1 47/47/1 46/40/1
f 99/48/1 47/47/1 75/44/1
f 25/45/1 99/48/1 98/46/1
f 25/45/1 47/47/1 99/48/1
f 24/49/1 47/47/1 25/45/1
f 24/49/1 48/50/1 47/47/1
f 23/51/1 49/52/1 24/49/1
f 49/52/1 48/50/1 24/49/1
f 23/51/1 50/53/1 49/52/1
f 22/54/1 50/53/1 23/51/1
f 22/54/1 51/55/1 50/53/1
f 22/54/1 52/56/1 51/55/1
f 21/57/1 52/56/1 22/54/1
f 21/57/1 53/58/1 52/56/1
f 20/59/1 53/58/1 21/57/1
f 20/59/1 54/60/1 53/58/1
f 72/61/1 74/62/1 73/63/1
f 20/59/1 55/64/1 54/60/1
f 71/65/1 74/62/1 72/61/1
f 70/66/1 74/62/1 71/65/1
f 19/67/1 55/64/1 20/59/1
f 19/67/1 56/68/1 55/64/1
f 69/69/1 74/62/1 70/66/1
f 68/70/1 74/62/1 69/69/1
f 19/67/1 57/71/1 56/68/1
f 67/72/1 74/62/1 68/70/1
f 19/67/1 58/73/1 57/71/1
f 66/74/1 74/62/1 67/72/1
f 18/75/1 58/73/1 19/67/1
f 65/76/1 74/62/1 66/74/1
f 18/75/1 59/77/1 58/73/1
f 64/78/1 74/62/1 65/76/1
f 18/75/1 60/79/1 59/77/1
f 63/80/1 74/62/1 64/78/1
f 62/81/1 74/62/1 63/80/1
f 18/75/1 61/82/1 60/79/1
f 61/82/1 74/62/1 62/81/1
f 18/75/1 74/62/1 61/82/1
f 17/83/1 74/62/1 18/75/1
f 17/83/1 1/84/1 74/62/1
f 16/85/1 1/84/1 17/83/1
f 16/85/1 2/86/1 1/84/1
f 16/85/1 3/87/1 2/86/1
f 15/88/1 3/87/1 16/85/1
f 15/88/1 4/89/1 3/87/1
f 15/88/1 5/90/1 4/89/1
f 14/91/1 5/90/1 15/88/1
f 14/91/1 6/92/1 5/90/1
f 14/91/1 7/93/1 6/92/1
f 13/94/1 7/93/1 14/91/1
f 13/94/1 8/95/1 7/93/1
f 13/94/1 9/96/1 8/95/1
f 13/94/1 10/97/1 9/96/1
f 12/98/1 10/97/1 13/94/1
f 12/98/1 11/99/1 10/97/1
f 100/84/1 102/100/1 101/101/1
f 100/84/1 103/48/1 102/100/1
f 159/102/1 161/48/1 160/103/1
f 159/102/1 104/84/1 161/48/1
f 159/102/1 105/104/1 104/84/1
f 158/105/1 105/104/1 159/102/1
f 157/106/1 105/104/1 158/105/1
f 156/107/1 106/108/1 157/106/1
f 106/108/1 105/104/1 157/106/1
f 156/107/1 107/109/1 106/108/1
f 156/107/1 108/110/1 107/109/1
f 155/111/1 108/110/1 156/107/1
f 155/111/1 109/112/1 108/110/1
f 155/111/1 110/113/1 109/112/1
f 154/114/1 110/113/1 155/111/1
f 154/114/1 111/115/1 110/113/1
f 130/116/1 132/117/1 131/118/1
f 129/119/1 132/117/1 130/116/1
f 154/114/1 112/120/1 111/115/1
f 128/121/1 132/117/1 129/119/1
f 153/122/1 112/120/1 154/114/1
f 153/122/1 113/123/1 112/120/1
f 127/124/1 132/117/1 128/121/1
f 126/125/1 132/117/1 127/124/1
f 153/122/1 114/126/1 113/123/1
f 125/127/1 132/117/1 126/125/1
f 153/122/1 115/128/1 114/126/1
f 124/129/1 132/117/1 125/127/1
f 153/122/1 116/130/1 115/128/1
f 123/101/1 132/117/1 124/129/1
f 152/131/1 116/130/1 153/122/1
f 122/132/1 132/117/1 123/101/1
f 152/131/1 117/133/1 116/130/1
f 121/134/1 132/117/1 122/132/1
f 152/131/1 118/135/1 117/133/1
f 120/136/1 132/117/1 121/134/1
f 152/131/1 119/137/1 118/135/1
f 119/137/1 132/117/1 120/136/1
f 152/131/1 132/117/1 119/137/1
f 151/138/1 132/117/1 152/131/1
f 150/139/1 132/117/1 151/138/1
f 149/140/1 132/117/1 150/139/1
f 149/140/1 133/141/1 132/117/1
f 148/142/1 133/141/1 149/140/1
f 148/142/1 134/143/1 133/141/1
f 148/142/1 135/144/1 134/143/1
f 147/145/1 135/144/1 148/142/1
f 147/145/1 136/146/1 135/144/1
f 147/145/1 137/147/1 136/146/1
f 147/145/1 138/148/1 137/147/1
f 146/149/1 138/148/1 147/145/1
f 146/149/1 139/150/1 138/148/1
f 146/149/1 140/151/1 139/150/1
f 145/152/1 140/151/1 146/149/1
f 145/152/1 141/153/1 140/151/1
f 145/152/1 142/100/1 141/153/1
f 144/154/1 142/100/1 145/152/1
f 144/154/1 143/155/1 142/100/1
f 210/156/1 212/157/1 211/158/1
f 210/156/1 213/48/1 212/157/1
f 184/159/1 186/160/1 185/161/1
f 184/159/1 187/162/1 186/160/1
f 183/163/1 187/162/1 184/159/1
f 183/163/1 188/164/1 187/162/1
f 182/165/1 188/164/1 183/163/1
f 182/165/1 189/166/1 188/164/1
f 181/167/1 189/166/1 182/165/1
f 181/167/1 190/168/1 189/166/1
f 180/169/1 190/168/1 181/167/1
f 180/169/1 191/170/1 190/168/1
f 179/101/1 191/170/1 180/169/1
f 179/101/1 192/171/1 191/170/1
f 178/172/1 192/171/1 179/101/1
f 178/172/1 193/173/1 192/171/1
f 177/174/1 193/173/1 178/172/1
f 177/174/1 194/175/1 193/173/1
f 176/176/1 194/175/1 177/174/1
f 176/176/1 195/177/1 194/175/1
f 175/178/1 195/177/1 176/176/1
f 175/178/1 196/100/1 195/177/1
f 174/179/1 196/100/1 175/178/1
f 174/179/1 197/180/1 196/100/1
f 173/181/1 197/180/1 174/179/1
f 172/182/1 197/180/1 173/181/1
f 172/182/1 198/183/1 197/180/1
f 172/182/1 199/184/1 198/183/1
f 171/185/1 199/184/1 172/182/1
f 171/185/1 200/186/1 199/184/1
f 170/187/1 200/186/1 171/185/1
f 170/187/1 201/188/1 200/186/1
f 169/189/1 201/188/1 170/187/1
f 169/189/1 202/190/1 201/188/1
f 168/191/1 202/190/1 169/189/1
f 168/191/1 203/192/1 202/190/1
f 167/193/1 203/192/1 168/191/1
f 167/193/1 204/194/1 203/192/1
f 166/195/1 204/194/1 167/193/1
f 166/195/1 205/196/1 204/194/1
f 165/197/1 205/196/1 166/195/1
f 165/197/1 206/198/1 205/196/1
f 164/199/1 206/198/1 165/197/1
f 164/199/1 207/200/1 206/198/1
f 163/201/1 207/200/1 164/199/1
f 163/201/1 208/202/1 207/200/1
f 162/84/1 208/202/1 163/201/1
f 162/84/1 209/203/1 208/202/1
f 218/71/1 220/18/1 219/65/1
f 218/71/1 221/48/1 220/18/1
f 217/14/1 221/48/1 218/71/1
f 216/15/1 214/84/1 217/14/1
f 214/84/1 221/48/1 217/14/1
f 216/15/1 215/88/1 214/84/1
f 256/1/2 257/3/2 258/2/2
f 256/1/2 258/2/2 259/4/2
f 255/5/2 256/1/2 259/4/2
f 255/5/2 259/4/2 260/6/2
f 254/7/2 255/5/2 260/6/2
f 254/7/2 260/6/2 261/8/2
f 253/9/2 254/7/2 261/8/2
f 253/9/2 261/8/2 262/10/2
f 252/11/2 253/9/2 262/10/2
f 252/11/2 262/10/2 263/12/2
f 251/13/2 252/11/2 263/12/2
f 251/13/2 263/12/2 264/14/2
f 250/15/2 251/13/2 307/16/2
f 307/16/2 251/13/2 264/14/2
f 250/15/2 307/16/2 308/17/2
f 306/18/2 307/16/2 264/14/2
f 250/15/2 308/17/2 309/19/2
f 305/20/2 306/18/2 264/14/2
f 250/15/2 309/19/2 310/21/2
f 304/22/2 305/20/2 264/14/2
f 304/22/2 264/14/2 265/23/2
f 250/15/2 310/21/2 311/24/2
f 249/25/2 250/15/2 311/24/2
f 303/26/2 304/22/2 265/23/2
f 249/25/2 311/24/2 312/27/2
f 302/28/2 303/26/2 265/23/2
f 249/25/2 312/27/2 313/29/2
f 301/30/2 302/28/2 265/23/2
f 249/25/2 313/29/2 314/31/2
f 300/32/2 301/30/2 265/23/2
f 248/33/2 249/25/2 314/31/2
f 300/32/2 265/23/2 266/34/2
f 248/33/2 314/31/2 315/35/2
f 299/36/2 300/32/2 266/34/2
f 248/33/2 315/35/2 316/37/2
f 298/38/2 299/36/2 266/34/2
f 247/39/2 248/33/2 316/37/2
f 298/38/2 266/34/2 267/40/2
f 247/39/2 316/37/2 317/41/2
f 297/42/2 298/38/2 267/40/2
f 247/39/2 317/41/2 318/43/2
f 296/44/2 297/42/2 267/40/2
f 246/45/2 247/39/2 318/43/2
f 246/45/2 318/43/2 319/46/2
f 296/44/2 267/40/2 268/47/2
f 320/48/2 296/44/2 268/47/2
f 246/45/2 319/46/2 320/48/2
f 246/45/2 320/48/2 268/47/2
f 245/49/2 246/45/2 268/47/2
f 245/49/2 268/47/2 269/50/2
f 244/51/2 245/49/2 270/52/2
f 270/52/2 245/49/2 269/50/2
f 244/51/2 270/52/2 271/53/2
f 243/54/2 244/51/2 271/53/2
f 243/54/2 271/53/2 272/55/2
f 243/54/2 272/55/2 273/56/2
f 242/57/2 243/54/2 273/56/2
f 242/57/2 273/56/2 274/58/2
f 241/59/2 242/57/2 274/58/2
f 241/59/2 274/58/2 275/60/2
f 293/61/2 294/63/2 295/62/2
f 241/59/2 275/60/2 276/64/2
f 292/65/2 293/61/2 295/62/2
f 291/66/2 292/65/2 295/62/2
f 240/67/2 241/59/2 276/64/2
f 240/67/2 276/64/2 277/68/2
f 290/69/2 291/66/2 295/62/2
f 289/70/2 290/69/2 295/62/2
f 240/67/2 277/68/2 278/71/2
f 288/72/2 289/70/2 295/62/2
f 240/67/2 278/71/2 279/73/2
f 287/74/2 288/72/2 295/62/2
f 239/75/2 240/67/2 279/73/2
f 286/76/2 287/74/2 295/62/2
f 239/75/2 279/73/2 280/77/2
f 285/78/2 286/76/2 295/62/2
f 239/75/2 280/77/2 281/79/2
f 284/80/2 285/78/2 295/62/2
f 283/81/2 284/80/2 295/62/2
f 239/75/2 281/79/2 282/82/2
f 282/82/2 283/81/2 295/62/2
f 239/75/2 282/82/2 295/62/2
f 238/83/2 239/75/2 295/62/2
f 238/83/2 295/62/2 222/84/2
f 237/85/2 238/83/2 222/84/2
f 237/85/2 222/84/2 223/86/2
f 237/85/2 223/86/2 224/87/2
f 236/88/2 237/85/2 224/87/2
f 236/88/2 224/87/2 225/89/2
f 236/88/2 225/89/2 226/90/2
f 235/91/2 236/88/2 226/90/2
f 235/91/2 226/90/2 227/92/2
f 235/91/2 227/92/2 228/93/2
f 234/94/2 235/91/2 228/93/2
f 234/94/2 228/93/2 229/95/2
f 234/94/2 229/95/2 230/96/2
f 234/94/2 230/96/2 231/97/2
f 233/98/2 234/94/2 231/97/2
f 233/98/2 231/97/2 232/99/2
f 321/84/2 322/101/2 323/100/2
f 321/84/2 323/100/2 324/48/2
f 380/102/2 381/103/2 382/48/2
f 380/102/2 382/48/2 325/84/2
f 380/102/2 325/84/2 326/104/2
f 379/105/2 380/102/2 326/104/2
f 378/106/1 379/105/1 326/104/1
f 377/107/2 378/106/2 327/108/2
f 327/108/1 378/106/1 326/104/1
f 377/107/2 327/108/2 328/109/2
f 377/107/2 328/109/2 329/110/2
f 376/111/2 377/107/2 329/110/2
f 376/111/2 329/110/2 330/112/2
f 376/111/2 330/112/2 331/113/2
f 375/114/2 376/111/2 331/113/2
f 375/114/2 331/113/2 332/115/2
f 351/116/2 352/118/2 353/117/2
f 350/119/2 351/116/2 353/117/2
f 375/114/2 332/115/2 333/120/2
f 349/121/2 350/119/2 353/117/2
f 374/122/2 375/114/2 333/120/2
f 374/122/2 333/120/2 334/123/2
f 348/124/2 349/121/2 353/117/2
f 347/125/2 348/124/2 353/117/2
f 374/122/2 334/123/2 335/126/2
f 346/127/2 347/125/2 353/117/2
f 374/122/2 335/126/2 336/128/2
f 345/129/2 346/127/2 353/117/2
f 374/122/2 336/128/2 337/130/2
f 344/101/2 345/129/2 353/117/2
f 373/131/2 374/122/2 337/130/2
f 343/132/2 344/101/2 353/117/2
f 373/131/2 337/130/2 338/133/2
f 342/134/2 343/132/2 353/117/2
f 373/131/2 338/133/2 339/135/2
f 341/136/2 342/134/2 353/117/2
f 373/131/2 339/135/2 340/137/2
f 340/137/2 341/136/2 353/117/2
f 373/131/2 340/137/2 353/117/2
f 372/138/2 373/131/2 353/117/2
f 371/139/2 372/138/2 353/117/2
f 370/140/2 371/139/2 353/117/2
f 370/140/2 353/117/2 354/141/2
f 369/142/2 370/140/2 354/141/2
f 369/142/2 354/141/2 355/143/2
f 369/142/2 355/143/2 356/144/2
f 368/145/2 369/142/2 356/144/2
f 368/145/2 356/144/2 357/146/2
f 368/145/2 357/146/2 358/147/2
f 368/145/2 358/147/2 359/148/2
f 367/149/2 368/145/2 359/148/2
f 367/149/2 359/148/2 360/150/2
f 367/149/2 360/150/2 361/151/2
f 366/152/2 367/149/2 361/151/2
f 366/152/2 361/151/2 362/153/2
f 366/152/2 362/153/2 363/100/2
f 365/154/2 366/152/2 363/100/2
f 365/154/2 363/100/2 364/155/2
f 431/156/2 432/158/2 433/157/2
f 431/156/2 433/157/2 434/48/2
f 405/159/2 406/161/2 407/160/2
f 405/159/2 407/160/2 408/162/2
f 404/163/2 405/159/2 408/162/2
f 404/163/2 408/162/2 409/164/2
f 403/165/2 404/163/2 409/164/2
f 403/165/2 409/164/2 410/166/2
f 402/167/2 403/165/2 410/166/2
f 402/167/2 410/166/2 411/168/2
f 401/169/2 402/167/2 411/168/2
f 401/169/2 411/168/2 412/170/2
f 400/101/2 401/169/2 412/170/2
f 400/101/2 412/170/2 413/171/2
f 399/172/2 400/101/2 413/171/2
f 399/172/2 413/171/2 414/173/2
f 398/174/2 399/172/2 414/173/2
f 398/174/2 414/173/2 415/175/2
f 397/176/2 398/174/2 415/175/2
f 397/176/2 415/175/2 416/177/2
f 396/178/2 397/176/2 416/177/2
f 396/178/2 416/177/2 417/100/2
f 395/179/2 396/178/2 417/100/2
f 395/179/2 417/100/2 418/180/2
f 394/181/2 395/179/2 418/180/2
f 393/182/2 394/181/2 418/180/2
f 393/182/2 418/180/2 419/183/2
f 393/182/2 419/183/2 420/184/2
f 392/185/2 393/182/2 420/184/2
f 392/185/2 420/184/2 421/186/2
f 391/187/2 392/185/2 421/186/2
f 391/187/2 421/186/2 422/188/2
f 390/189/2 391/187/2 422/188/2
f 390/189/2 422/188/2 423/190/2
f 389/191/2 390/189/2 423/190/2
f 389/191/2 423/190/2 424/192/2
f 388/193/2 389/191/2 424/192/2
f 388/193/2 424/192/2 425/194/2
f 387/195/2 388/193/2 425/194/2
f 387/195/2 425/194/2 426/196/2
f 386/197/2 387/195/2 426/196/2
f 386/197/2 426/196/2 427/198/2
f 385/199/2 386/197/2 427/198/2
f 385/199/2 427/198/2 428/200/2
f 384/201/2 385/199/2 428/200/2
f 384/201/2 428/200/2 429/202/2
f 383/84/2 384/201/2 429/202/2
f 383/84/2 429/202/2 430/203/2
f 439/71/2 440/65/2 441/18/2
f 439/71/2 441/18/2 442/48/2
f 438/14/1 439/71/1 442/48/1
f 437/15/2 438/14/2 435/84/2
f 435/84/1 438/14/1 442/48/1
f 437/15/2 435/84/2 436/88/2
s 1
f 446/204/3 443/84/3 444/205/3
f 448/206/4 445/207/3 446/204/3
f 450/208/4 447/209/4 448/206/4
f 452/210/4 449/211/4 450/208/4
f 454/212/5 451/53/4 452/210/4
f 456/213/6 453/214/5 454/212/5
f 458/215/3 455/216/6 456/213/6
f 444/217/3 457/218/3 458/215/3
f 462/206/5 459/84/4 460/205/4
f 464/210/6 461/209/5 462/206/5
f 466/213/3 463/53/6 464/210/6
f 460/217/4 465/216/3 466/213/3
f 470/219/7 467/84/8 468/205/8
f 472/220/9 469/221/7 470/219/7
f 474/222/10 471/223/9 472/220/9
f 476/224/11 473/225/10 474/222/10
f 478/226/4 475/227/11 476/224/11
f 480/204/12 477/228/4 478/226/4
f 482/229/13 479/207/12 480/204/12
f 484/230/14 481/231/13 482/229/13
f 486/232/15 483/233/14 484/230/14
f 488/234/16 485/235/15 486/232/15
f 490/236/17 487/237/16 488/234/16
f 492/206/18 489/238/17 490/236/17
f 494/239/19 491/209/18 492/206/18
f 496/240/20 493/241/19 494/239/19
f 498/242/21 495/243/20 496/240/20
f 500/244/22 497/245/21 498/242/21
f 502/246/5 499/101/22 500/244/22
f 504/208/23 501/247/5 502/246/5
f 506/248/24 503/211/23 504/208/23
f 508/249/25 505/250/24 506/248/24
f 510/251/26 507/252/25 508/249/25
f 512/253/27 509/254/26 510/251/26
f 514/255/28 511/256/27 512/253/27
f 516/210/29 513/257/28 514/255/28
f 518/258/30 515/53/29 516/210/29
f 520/259/31 517/260/30 518/258/30
f 522/261/32 519/262/31 520/259/31
f 524/263/33 521/264/32 522/261/32
f 526/265/6 523/266/33 524/263/33
f 528/212/34 525/267/6 526/265/6
f 530/268/35 527/214/34 528/212/34
f 532/269/36 529/270/35 530/268/35
f 534/271/37 531/100/36 532/269/36
f 536/272/38 533/273/37 534/271/37
f 538/274/39 535/275/38 536/272/38
f 540/213/40 537/276/39 538/274/39
f 542/277/41 539/216/40 540/213/40
f 544/278/42 541/279/41 542/277/41
f 546/280/43 543/281/42 544/278/42
f 548/282/44 545/283/43 546/280/43
f 550/284/3 547/285/44 548/282/44
f 552/215/45 549/286/3 550/284/3
f 554/287/46 551/218/45 552/215/45
f 556/288/47 553/289/46 554/287/46
f 558/290/48 555/291/47 556/288/47
f 560/292/49 557/293/48 558/290/48
f 562/294/50 559/295/49 560/292/49
f 468/217/8 561/296/50 562/294/50
f 566/297/3 563/84/6 564/205/6
f 568/298/3 565/299/3 566/297/3
f 570/300/51 567/301/3 568/298/3
f 572/302/52 569/303/51 570/300/51
f 574/304/53 571/305/52 572/302/52
f 576/306/54 573/307/53 574/304/53
f 578/308/55 575/309/54 576/306/54
f 580/310/56 577/311/55 578/308/55
f 582/312/57 579/313/56 580/310/56
f 584/314/58 581/315/57 582/312/57
f 586/316/59 583/317/58 584/314/58
f 588/318/60 585/319/59 586/316/59
f 590/320/61 587/321/60 588/318/60
f 592/322/62 589/323/61 590/320/61
f 594/324/63 591/325/62 592/322/62
f 596/326/64 593/327/63 594/324/63
f 598/328/65 595/329/64 596/326/64
f 600/330/66 597/331/65 598/328/65
f 602/332/67 599/333/66 600/330/66
f 604/334/68 601/335/67 602/332/67
f 606/336/69 603/337/68 604/334/68
f 608/338/70 605/339/69 606/336/69
f 610/340/71 607/341/70 608/338/70
f 612/342/72 609/343/71 610/340/71
f 614/344/73 611/345/72 612/342/72
f 616/346/74 613/347/73 614/344/73
f 618/348/75 615/349/74 616/346/74
f 620/350/76 617/351/75 618/348/75
f 622/210/77 619/352/76 620/350/76
f 624/353/78 621/53/77 622/210/77
f 626/354/79 623/355/78 624/353/78
f 628/356/80 625/357/79 626/354/79
f 630/358/81 627/359/80 628/356/80
f 632/360/82 629/361/81 630/358/81
f 634/362/83 631/363/82 632/360/82
f 636/364/84 633/365/83 634/362/83
f 638/366/85 635/367/84 636/364/84
f 640/368/86 637/369/85 638/366/85
f 642/370/87 639/371/86 640/368/86
f 644/372/88 641/373/87 642/370/87
f 646/374/89 643/375/88 644/372/88
f 648/376/90 645/377/89 646/374/89
f 650/378/91 647/379/90 648/376/90
f 652/380/92 649/381/91 650/378/91
f 654/382/93 651/383/92 652/380/92
f 656/384/94 653/385/93 654/382/93
f 658/386/95 655/387/94 656/384/94
f 660/388/96 657/389/95 658/386/95
f 662/390/97 659/391/96 660/388/96
f 664/392/98 661/393/97 662/390/97
f 666/394/99 663/395/98 664/392/98
f 668/396/100 665/397/99 666/394/99
f 670/398/4 667/399/100 668/396/100
f 672/400/4 669/401/4 670/398/4
f 674/402/101 671/403/4 672/400/4
f 676/404/102 673/405/101 674/402/101
f 678/406/6 675/407/102 676/404/102
f 564/217/6 677/408/6 678/406/6
f 682/206/5 679/84/4 680/205/4
f 684/210/6 681/209/5 682/206/5
f 686/213/3 683/53/6 684/210/6
f 680/217/4 685/216/3 686/213/3
f 690/409/103 687/84/104 688/205/104
f 692/410/105 689/411/103 690/409/103
f 694/412/106 691/413/105 692/410/105
f 696/414/107 693/415/106 694/412/106
f 698/416/108 695/417/107 696/414/107
f 700/418/109 697/419/108 698/416/108
f 702/420/110 699/421/109 700/418/109
f 704/422/111 701/423/110 702/420/110
f 706/424/112 703/425/111 704/422/111
f 708/426/113 705/427/112 706/424/112
f 710/428/114 707/429/113 708/426/113
f 712/430/115 709/431/114 710/428/114
f 714/432/116 711/433/115 712/430/115
f 716/434/117 713/435/116 714/432/116
f 718/436/118 715/437/117 716/434/117
f 720/438/119 717/439/118 718/436/118
f 722/440/120 719/441/119 720/438/119
f 724/442/121 721/443/120 722/440/120
f 726/444/122 723/445/121 724/442/121
f 728/446/123 725/447/122 726/444/122
f 730/448/124 727/449/123 728/446/123
f 732/450/125 729/451/124 730/448/124
f 734/452/126 731/453/125 732/450/125
f 736/454/127 733/455/126 734/452/126
f 738/456/128 735/457/127 736/454/127
f 740/458/129 737/459/128 738/456/128
f 742/460/130 739/461/129 740/458/129
f 744/462/131 741/463/130 742/460/130
f 746/464/132 743/465/131 744/462/131
f 748/466/133 745/467/132 746/464/132
f 750/468/134 747/469/133 748/466/133
f 752/470/135 749/471/134 750/468/134
f 754/472/136 751/473/135 752/470/135
f 756/474/137 753/475/136 754/472/136
f 758/476/138 755/477/137 756/474/137
f 760/478/139 757/479/138 758/476/138
f 762/210/140 759/480/139 760/478/139
f 764/481/141 761/53/140 762/210/140
f 766/482/142 763/483/141 764/481/141
f 768/484/143 765/485/142 766/482/142
f 770/486/144 767/487/143 768/484/143
f 772/488/145 769/489/144 770/486/144
f 774/490/146 771/491/145 772/488/145
f 776/492/147 773/493/146 774/490/146
f 778/494/148 775/495/147 776/492/147
f 780/496/149 777/497/148 778/494/148
f 782/498/150 779/499/151 780/496/149
f 784/500/152 781/501/150 782/498/150
f 786/502/153 783/503/152 784/500/152
f 788/504/154 785/505/153 786/502/153
f 790/506/155 787/507/154 788/504/154
f 792/508/156 789/509/155 790/506/155
f 794/510/157 791/511/156 792/508/156
f 796/512/158 793/513/157 794/510/157
f 798/514/159 795/515/158 796/512/158
f 800/516/160 797/517/159 798/514/159
f 802/518/161 799/519/160 800/516/160
f 804/520/162 801/521/161 802/518/161
f 806/522/163 803/523/162 804/520/162
f 808/524/164 805/525/163 806/522/163
f 810/526/165 807/527/164 808/524/164
f 812/528/166 809/529/165 810/526/165
f 814/530/167 811/531/166 812/528/166
f 816/532/168 813/533/167 814/530/167
f 818/534/169 815/535/168 816/532/168
f 820/536/170 817/537/169 818/534/169
f 822/538/171 819/539/170 820/536/170
f 824/540/172 821/541/171 822/538/171
f 826/542/173 823/543/172 824/540/172
f 828/544/174 825/545/173 826/542/173
f 830/546/175 827/547/174 828/544/174
f 832/548/176 829/549/175 830/546/175
f 834/550/177 831/551/176 832/548/176
f 688/217/104 833/552/177 834/550/177
f 838/553/178 835/84/179 836/205/179
f 840/554/180 837/555/181 838/553/178
f 842/556/182 839/557/180 840/554/180
f 844/558/183 841/559/182 842/556/182
f 846/560/184 843/561/183 844/558/183
f 848/562/185 845/563/184 846/560/184
f 850/564/186 847/565/185 848/562/185
f 852/566/187 849/567/186 850/564/186
f 854/568/188 851/569/187 852/566/187
f 856/570/189 853/571/188 854/568/188
f 858/572/190 855/573/189 856/570/189
f 860/574/191 857/575/190 858/572/190
f 862/576/192 859/577/191 860/574/191
f 864/578/193 861/579/192 862/576/192
f 866/580/194 863/581/193 864/578/193
f 868/582/195 865/583/194 866/580/194
f 870/584/196 867/585/195 868/582/195
f 872/586/197 869/587/196 870/584/196
f 874/588/198 871/589/197 872/586/197
f 876/590/199 873/591/198 874/588/198
f 878/592/200 875/593/199 876/590/199
f 880/594/201 877/595/200 878/592/200
f 882/596/202 879/597/201 880/594/201
f 884/598/203 881/599/202 882/596/202
f 836/217/179 883/600/203 884/598/203
f 446/204/3 445/207/3 443/84/3
f 448/206/4 447/209/4 445/207/3
f 450/208/4 449/211/4 447/209/4
f 452/210/4 451/53/4 449/211/4
f 454/212/5 453/214/5 451/53/4
f 456/213/6 455/216/6 453/214/5
f 458/215/3 457/218/3 455/216/6
f 444/217/3 443/48/3 457/218/3
f 462/206/5 461/209/5 459/84/4
f 464/210/6 463/53/6 461/209/5
f 466/213/3 465/216/3 463/53/6
f 460/217/4 459/48/4 465/216/3
f 470/219/7 469/221/7 467/84/8
f 472/220/9 471/223/9 469/221/7
f 474/222/10 473/225/10 471/223/9
f 476/224/11 475/227/11 473/225/10
f 478/226/4 477/228/4 475/227/11
f 480/204/12 479/207/12 477/228/4
f 482/229/13 481/231/13 479/207/12
f 484/230/14 483/233/14 481/231/13
f 486/232/15 485/235/15 483/233/14
f 488/234/16 487/237/16 485/235/15
f 490/236/17 489/238/17 487/237/16
f 492/206/18 491/209/18 489/238/17
f 494/239/19 493/241/19 491/209/18
f 496/240/20 495/243/20 493/241/19
f 498/242/21 497/245/21 495/243/20
f 500/244/22 499/101/22 497/245/21
f 502/246/5 501/247/5 499/101/22
f 504/208/23 503/211/23 501/247/5
f 506/248/24 505/250/24 503/211/23
f 508/249/25 507/252/25 505/250/24
f 510/251/26 509/254/26 507/252/25
f 512/253/27 511/256/27 509/254/26
f 514/255/28 513/257/28 511/256/27
f 516/210/29 515/53/29 513/257/28
f 518/258/30 517/260/30 515/53/29
f 520/259/31 519/262/31 517/260/30
f 522/261/32 521/264/32 519/262/31
f 524/263/33 523/266/33 521/264/32
f 526/265/6 525/267/6 523/266/33
f 528/212/34 527/214/34 525/267/6
f 530/268/35 529/270/35 527/214/34
f 532/269/36 531/100/36 529/270/35
f 534/271/37 533/273/37 531/100/36
f 536/272/38 535/275/38 533/273/37
f 538/274/39 537/276/39 535/275/38
f 540/213/40 539/216/40 537/276/39
f 542/277/41 541/279/41 539/216/40
f 544/278/42 543/281/42 541/279/41
f 546/280/43 545/283/43 543/281/42
f 548/282/44 547/285/44 545/283/43
f 550/284/3 549/286/3 547/285/44
f 552/215/45 551/218/45 549/286/3
f 554/287/46 553/289/46 551/218/45
f 556/288/47 555/291/47 553/289/46
f 558/290/48 557/293/48 555/291/47
f 560/292/49 559/295/49 557/293/48
f 562/294/50 561/296/50 559/295/49
f 468/217/8 467/48/8 561/296/50
f 566/297/3 565/299/3 563/84/6
f 568/298/3 567/301/3 565/299/3
f 570/300/51 569/303/51 567/301/3
f 572/302/52 571/305/52 569/303/51
f 574/304/53 573/307/53 571/305/52
f 576/306/54 575/309/54 573/307/53
f 578/308/55 577/311/55 575/309/54
f 580/310/56 579/313/56 577/311/55
f 582/312/57 581/315/57 579/313/56
f 584/314/58 583/317/58 581/315/57
f 586/316/59 585/319/59 583/317/58
f 588/318/60 587/321/60 585/319/59
f 590/320/61 589/323/61 587/321/60
f 592/322/62 591/325/62 589/323/61
f 594/324/63 593/327/63 591/325/62
f 596/326/64 595/329/64 593/327/63
f 598/328/65 597/331/65 595/329/64
f 600/330/66 599/333/66 597/331/65
f 602/332/67 601/335/67 599/333/66
f 604/334/68 603/337/68 601/335/67
f 606/336/69 605/339/69 603/337/68
f 608/338/70 607/341/70 605/339/69
f 610/340/71 609/343/71 607/341/70
f 612/342/72 611/345/72 609/343/71
f 614/344/73 613/347/73 611/345/72
f 616/346/74 615/349/74 613/347/73
f 618/348/75 617/351/75 615/349/74
f 620/350/76 619/352/76 617/351/75
f 622/210/77 621/53/77 619/352/76
f 624/353/78 623/355/78 621/53/77
f 626/354/79 625/357/79 623/355/78
f 628/356/80 627/359/80 625/357/79
f 630/358/81 629/361/81 627/359/80
f 632/360/82 631/363/82 629/361/81
f 634/362/83 633/365/83 631/363/82
f 636/364/84 635/367/84 633/365/83
f 638/366/85 637/369/85 635/367/84
f 640/368/86 639/371/86 637/369/85
f 642/370/87 641/373/87 639/371/86
f 644/372/88 643/375/88 641/373/87
f 646/374/89 645/377/89 643/375/88
f 648/376/90 647/379/90 645/377/89
f 650/378/91 649/381/91 647/379/90
f 652/380/92 651/383/92 649/381/91
f 654/382/93 653/385/93 651/383/92
f 656/384/94 655/387/94 653/385/93
f 658/386/95 657/389/95 655/387/94
f 660/388/96 659/391/96 657/389/95
f 662/390/97 661/393/97 659/391/96
f 664/392/98 663/395/98 661/393/97
f 666/394/99 665/397/99 663/395/98
f 668/396/100 667/399/100 665/397/99
f 670/398/4 669/401/4 667/399/100
f 672/400/4 671/403/4 669/401/4
f 674/402/101 673/405/101 671/403/4
f 676/404/102 675/407/102 673/405/101
f 678/406/6 677/408/6 675/407/102
f 564/217/6 563/48/6 677/408/6
f 682/206/5 681/209/5 679/84/4
f 684/210/6 683/53/6 681/209/5
f 686/213/3 685/216/3 683/53/6
f 680/217/4 679/48/4 685/216/3
f 690/409/103 689/411/103 687/84/104
f 692/410/105 691/413/105 689/411/103
f 694/412/106 693/415/106 691/413/105
f 696/414/107 695/417/107 693/415/106
f 698/416/108 697/419/108 695/417/107
f 700/418/109 699/421/109 697/419/108
f 702/420/110 701/423/110 699/421/109
f 704/422/111 703/425/111 701/423/110
f 706/424/112 705/427/112 703/425/111
f 708/426/113 707/429/113 705/427/112
f 710/428/114 709/431/114 707/429/113
f 712/430/115 711/433/115 709/431/114
f 714/432/116 713/435/116 711/433/115
f 716/434/117 715/437/117 713/435/116
f 718/436/118 717/439/118 715/437/117
f 720/438/119 719/441/119 717/439/118
f 722/440/120 721/443/120 719/441/119
f 724/442/121 723/445/121 721/443/120
f 726/444/122 725/447/122 723/445/121
f 728/446/123 727/449/123 725/447/122
f 730/448/124 729/451/124 727/449/123
f 732/450/125 731/453/125 729/451/124
f 734/452/126 733/455/126 731/453/125
f 736/454/127 735/457/127 733/455/126
f 738/456/128 737/459/128 735/457/127
f 740/458/129 739/461/129 737/459/128
f 742/460/130 741/463/130 739/461/129
f 744/462/131 743/465/131 741/463/130
f 746/464/132 745/467/132 743/465/131
f 748/466/133 747/469/133 745/467/132
f 750/468/134 749/471/134 747/469/133
f 752/470/135 751/473/135 749/471/134
f 754/472/136 753/475/136 751/473/135
f 756/474/137 755/477/137 753/475/136
f 758/476/138 757/479/138 755/477/137
f 760/478/139 759/480/139 757/479/138
f 762/210/140 761/53/140 759/480/139
f 764/481/141 763/483/141 761/53/140
f 766/482/142 765/485/142 763/483/141
f 768/484/143 767/487/143 765/485/142
f 770/486/144 769/489/144 767/487/143
f 772/488/145 771/491/145 769/489/144
f 774/490/146 773/493/146 771/491/145
f 776/492/147 775/495/147 773/493/146
f 778/494/148 777/497/148 775/495/147
f 780/496/149 779/499/151 777/497/148
f 782/498/150 781/501/150 779/499/151
f 784/500/152 783/503/152 781/501/150
f 786/502/153 785/505/153 783/503/152
f 788/504/154 787/507/154 785/505/153
f 790/506/155 789/509/155 787/507/154
f 792/508/156 791/511/156 789/509/155
f 794/510/157 793/513/157 791/511/156
f 796/512/158 795/515/158 793/513/157
f 798/514/159 797/517/159 795/515/158
f 800/516/160 799/519/160 797/517/159
f 802/518/161 801/521/161 799/519/160
f 804/520/162 803/523/162 801/521/161
f 806/522/163 805/525/163 803/523/162
f 808/524/164 807/527/164 805/525/163
f 810/526/165 809/529/165 807/527/164
f 812/528/166 811/531/166 809/529/165
f 814/530/167 813/533/167 811/531/166
f 816/532/168 815/535/168 813/533/167
f 818/534/169 817/537/169 815/535/168
f 820/536/170 819/539/170 817/537/169
f 822/538/171 821/541/171 819/539/170
f 824/540/172 823/543/172 821/541/171
f 826/542/173 825/545/173 823/543/172
f 828/544/174 827/547/174 825/545/173
f 830/546/175 829/549/175 827/547/174
f 832/548/176 831/551/176 829/549/175
f 834/550/177 833/552/177 831/551/176
f 688/217/104 687/48/104 833/552/177
f 838/553/178 837/555/181 835/84/179
f 840/554/180 839/557/180 837/555/181
f 842/556/182 841/559/182 839/557/180
f 844/558/183 843/561/183 841/559/182
f 846/560/184 845/563/184 843/561/183
f 848/562/185 847/565/185 845/563/184
f 850/564/186 849/567/186 847/565/185
f 852/566/187 851/569/187 849/567/186
f 854/568/188 853/571/188 851/569/187
f 856/570/189 855/573/189 853/571/188
f 858/572/190 857/575/190 855/573/189
f 860/574/191 859/577/191 857/575/190
f 862/576/192 861/579/192 859/577/191
f 864/578/193 863/581/193 861/579/192
f 866/580/194 865/583/194 863/581/193
f 868/582/195 867/585/195 865/583/194
f 870/584/196 869/587/196 867/585/195
f 872/586/197 871/589/197 869/587/196
f 874/588/198 873/591/198 871/589/197
f 876/590/199 875/593/199 873/591/198
f 878/592/200 877/595/200 875/593/199
f 880/594/201 879/597/201 877/595/200
f 882/596/202 881/599/202 879/597/201
f 884/598/203 883/600/203 881/599/202
f 836/217/179 835/48/179 883/600/203
